<?xml version="1.0" encoding="utf-8" standalone="no"?>
<!DOCTYPE svg PUBLIC "-//W3C//DTD SVG 1.1//EN"
  "http://www.w3.org/Graphics/SVG/1.1/DTD/svg11.dtd">
<svg xmlns:xlink="http://www.w3.org/1999/xlink" width="633.714418pt" height="371.281098pt" viewBox="0 0 633.714418 371.281098" xmlns="http://www.w3.org/2000/svg" version="1.1">
 <metadata>
  <rdf:RDF xmlns:dc="http://purl.org/dc/elements/1.1/" xmlns:cc="http://creativecommons.org/ns#" xmlns:rdf="http://www.w3.org/1999/02/22-rdf-syntax-ns#">
   <cc:Work>
    <dc:type rdf:resource="http://purl.org/dc/dcmitype/StillImage"/>
    <dc:date>2026-07-13T09:25:27.114980</dc:date>
    <dc:format>image/svg+xml</dc:format>
    <dc:creator>
     <cc:Agent>
      <dc:title>Matplotlib v3.11.0, https://matplotlib.org/</dc:title>
     </cc:Agent>
    </dc:creator>
   </cc:Work>
  </rdf:RDF>
 </metadata>
 <defs>
  <style type="text/css">*{stroke-linejoin: round; stroke-linecap: butt}</style>
 </defs>
 <g id="figure_1">
  <g id="patch_1">
   <path d="M 0 371.281098 
L 633.714418 371.281098 
L 633.714418 0 
L 0 0 
z
" style="fill: #ffffff"/>
  </g>
  <g id="axes_1">
   <g id="patch_2">
    <path d="M 55.640874 126.636094 
L 418.641986 126.636094 
L 418.641986 21.867591 
L 55.640874 21.867591 
z
" style="fill: #ffffff"/>
   </g>
   <g id="patch_3">
    <path d="M 55.640874 126.636094 
L 297.641615 126.636094 
L 297.641615 21.867591 
L 55.640874 21.867591 
z
" clip-path="url(#pf228cae47f)" style="fill: #f2f2f2; stroke: #f2f2f2; stroke-width: 0.6; stroke-linejoin: miter"/>
   </g>
   <g id="FillBetweenPolyCollection_1">
    <defs>
     <path id="m0e74f92bfd" d="M 298.450982 -312.337671 
L 298.450982 -284.399403 
L 299.665033 -284.662041 
L 300.879084 -284.924312 
L 302.093134 -285.185995 
L 303.307185 -285.446871 
L 304.521235 -285.706721 
L 305.735286 -285.965326 
L 306.949336 -286.222467 
L 308.163387 -286.47793 
L 309.377437 -286.731496 
L 310.591488 -286.982952 
L 311.805538 -287.232085 
L 313.019589 -287.478682 
L 314.233639 -287.722534 
L 315.44769 -287.963431 
L 316.661741 -288.201168 
L 317.875791 -288.435539 
L 319.089842 -288.666341 
L 320.303892 -288.893376 
L 321.517943 -289.116444 
L 322.731993 -289.33535 
L 323.946044 -289.549901 
L 325.160094 -289.759908 
L 326.374145 -289.965183 
L 327.588195 -290.165541 
L 328.802246 -290.360802 
L 330.016296 -290.550787 
L 331.230347 -290.735322 
L 332.444398 -290.914236 
L 333.658448 -291.087361 
L 334.872499 -291.254533 
L 336.086549 -291.415592 
L 337.3006 -291.570381 
L 338.51465 -291.718748 
L 339.728701 -291.860544 
L 340.942751 -291.995625 
L 342.156802 -292.12385 
L 343.370852 -292.245085 
L 344.584903 -292.359198 
L 345.798954 -292.466061 
L 347.013004 -292.565553 
L 348.227055 -292.657556 
L 349.441105 -292.741956 
L 350.655156 -292.818646 
L 351.869206 -292.887522 
L 353.083257 -292.948486 
L 354.297307 -293.001444 
L 355.511358 -293.046307 
L 356.725408 -293.082994 
L 357.939459 -293.111424 
L 359.153509 -293.131526 
L 360.36756 -293.143231 
L 361.581611 -293.146478 
L 362.795661 -293.141208 
L 364.009712 -293.12737 
L 365.223762 -293.104918 
L 366.437813 -293.073811 
L 367.651863 -293.034013 
L 368.865914 -292.985494 
L 370.079964 -292.928229 
L 371.294015 -292.8622 
L 372.508065 -292.787392 
L 373.722116 -292.703799 
L 374.936167 -292.611416 
L 376.150217 -292.510248 
L 377.364268 -292.400303 
L 378.578318 -292.281595 
L 379.792369 -292.154143 
L 381.006419 -292.017972 
L 382.22047 -291.873114 
L 383.43452 -291.719603 
L 384.648571 -291.557483 
L 385.862621 -291.386798 
L 387.076672 -291.207603 
L 388.290722 -291.019954 
L 389.504773 -290.823914 
L 390.718824 -290.619551 
L 391.932874 -290.40694 
L 393.146925 -290.186158 
L 394.360975 -289.95729 
L 395.575026 -289.720424 
L 396.789076 -289.475654 
L 398.003127 -289.223079 
L 399.217177 -288.962804 
L 400.431228 -288.694935 
L 401.645278 -288.419588 
L 402.859329 -288.13688 
L 404.07338 -287.846933 
L 405.28743 -287.549876 
L 406.501481 -287.24584 
L 407.715531 -286.934961 
L 408.929582 -286.617379 
L 410.143632 -286.29324 
L 411.357683 -285.962692 
L 412.571733 -285.625887 
L 413.785784 -285.282984 
L 414.999834 -284.934142 
L 416.213885 -284.579525 
L 417.427935 -284.219302 
L 418.641986 -283.853645 
L 418.641986 -311.791913 
L 418.641986 -311.791913 
L 417.427935 -312.15757 
L 416.213885 -312.517793 
L 414.999834 -312.872409 
L 413.785784 -313.221251 
L 412.571733 -313.564155 
L 411.357683 -313.900959 
L 410.143632 -314.231508 
L 408.929582 -314.555647 
L 407.715531 -314.873229 
L 406.501481 -315.184108 
L 405.28743 -315.488144 
L 404.07338 -315.785201 
L 402.859329 -316.075148 
L 401.645278 -316.357856 
L 400.431228 -316.633203 
L 399.217177 -316.901071 
L 398.003127 -317.161347 
L 396.789076 -317.413922 
L 395.575026 -317.658691 
L 394.360975 -317.895558 
L 393.146925 -318.124426 
L 391.932874 -318.345208 
L 390.718824 -318.557819 
L 389.504773 -318.762181 
L 388.290722 -318.958221 
L 387.076672 -319.14587 
L 385.862621 -319.325066 
L 384.648571 -319.49575 
L 383.43452 -319.657871 
L 382.22047 -319.811381 
L 381.006419 -319.95624 
L 379.792369 -320.09241 
L 378.578318 -320.219862 
L 377.364268 -320.338571 
L 376.150217 -320.448516 
L 374.936167 -320.549684 
L 373.722116 -320.642066 
L 372.508065 -320.72566 
L 371.294015 -320.800467 
L 370.079964 -320.866497 
L 368.865914 -320.923761 
L 367.651863 -320.97228 
L 366.437813 -321.012079 
L 365.223762 -321.043186 
L 364.009712 -321.065638 
L 362.795661 -321.079476 
L 361.581611 -321.084745 
L 360.36756 -321.081499 
L 359.153509 -321.069794 
L 357.939459 -321.049692 
L 356.725408 -321.021261 
L 355.511358 -320.984575 
L 354.297307 -320.939711 
L 353.083257 -320.886753 
L 351.869206 -320.82579 
L 350.655156 -320.756914 
L 349.441105 -320.680224 
L 348.227055 -320.595824 
L 347.013004 -320.503821 
L 345.798954 -320.404329 
L 344.584903 -320.297466 
L 343.370852 -320.183353 
L 342.156802 -320.062118 
L 340.942751 -319.933892 
L 339.728701 -319.798811 
L 338.51465 -319.657015 
L 337.3006 -319.508649 
L 336.086549 -319.35386 
L 334.872499 -319.192801 
L 333.658448 -319.025629 
L 332.444398 -318.852504 
L 331.230347 -318.67359 
L 330.016296 -318.489055 
L 328.802246 -318.299069 
L 327.588195 -318.103809 
L 326.374145 -317.90345 
L 325.160094 -317.698176 
L 323.946044 -317.488169 
L 322.731993 -317.273618 
L 321.517943 -317.054712 
L 320.303892 -316.831644 
L 319.089842 -316.604609 
L 317.875791 -316.373806 
L 316.661741 -316.139435 
L 315.44769 -315.901699 
L 314.233639 -315.660801 
L 313.019589 -315.41695 
L 311.805538 -315.170353 
L 310.591488 -314.92122 
L 309.377437 -314.669764 
L 308.163387 -314.416197 
L 306.949336 -314.160735 
L 305.735286 -313.903593 
L 304.521235 -313.644989 
L 303.307185 -313.385139 
L 302.093134 -313.124263 
L 300.879084 -312.86258 
L 299.665033 -312.600309 
L 298.450982 -312.337671 
z
"/>
    </defs>
    <g clip-path="url(#pf228cae47f)">
     <use xlink:href="#m0e74f92bfd" x="0" y="371.281098" style="fill: #7fbfc9; fill-opacity: 0.5"/>
    </g>
   </g>
   <g id="matplotlib.axis_1"/>
   <g id="matplotlib.axis_2">
    <g id="ytick_1">
     <g id="line2d_1">
      <defs>
       <path id="m7f50133021" d="M 0 0 
L -2.5 0 
" style="stroke: #000000; stroke-width: 0.6"/>
      </defs>
      <g>
       <use xlink:href="#m7f50133021" x="55.640874" y="114.99515" style="stroke: #000000; stroke-width: 0.6"/>
      </g>
     </g>
     <g id="text_1">
      <text style="font-size: 6.5px; font-family: 'Arial', sans-serif; text-anchor: end" x="49.640874" y="117.361238" transform="rotate(-0 49.640874 117.361238)">60</text>
     </g>
    </g>
    <g id="ytick_2">
     <g id="line2d_2">
      <g>
       <use xlink:href="#m7f50133021" x="55.640874" y="91.71326" style="stroke: #000000; stroke-width: 0.6"/>
      </g>
     </g>
     <g id="text_2">
      <text style="font-size: 6.5px; font-family: 'Arial', sans-serif; text-anchor: end" x="49.640874" y="94.079349" transform="rotate(-0 49.640874 94.079349)">70</text>
     </g>
    </g>
    <g id="ytick_3">
     <g id="line2d_3">
      <g>
       <use xlink:href="#m7f50133021" x="55.640874" y="68.43137" style="stroke: #000000; stroke-width: 0.6"/>
      </g>
     </g>
     <g id="text_3">
      <text style="font-size: 6.5px; font-family: 'Arial', sans-serif; text-anchor: end" x="49.640874" y="70.797459" transform="rotate(-0 49.640874 70.797459)">80</text>
     </g>
    </g>
    <g id="ytick_4">
     <g id="line2d_4">
      <g>
       <use xlink:href="#m7f50133021" x="55.640874" y="45.14948" style="stroke: #000000; stroke-width: 0.6"/>
      </g>
     </g>
     <g id="text_4">
      <text style="font-size: 6.5px; font-family: 'Arial', sans-serif; text-anchor: end" x="49.640874" y="47.515569" transform="rotate(-0 49.640874 47.515569)">90</text>
     </g>
    </g>
    <g id="ytick_5">
     <g id="line2d_5">
      <g>
       <use xlink:href="#m7f50133021" x="55.640874" y="21.867591" style="stroke: #000000; stroke-width: 0.6"/>
      </g>
     </g>
     <g id="text_5">
      <text style="font-size: 6.5px; font-family: 'Arial', sans-serif; text-anchor: end" x="49.640874" y="24.233679" transform="rotate(-0 49.640874 24.233679)">100</text>
     </g>
    </g>
    <g id="text_6">
     <text style="font-size: 7px; font-family: 'Arial', sans-serif; text-anchor: middle" x="33.323765" y="74.251843" transform="rotate(-90 33.323765 74.251843)">MAP (mmHg)</text>
    </g>
   </g>
   <g id="line2d_6">
    <path d="M 55.640874 36.529015 
L 56.854925 49.363504 
L 58.068975 41.056239 
L 59.283026 43.820044 
L 60.497076 43.516468 
L 61.711127 42.880871 
L 62.925177 47.95738 
L 64.139228 43.005932 
L 65.353279 44.828008 
L 66.567329 33.188421 
L 67.78138 41.911824 
L 68.99543 43.606931 
L 70.209481 43.495507 
L 72.637582 45.859699 
L 73.851632 44.117859 
L 75.065683 41.80255 
L 76.279733 43.947224 
L 77.493784 40.745363 
L 78.707834 44.128487 
L 79.921885 43.66023 
L 81.135936 39.575571 
L 83.564037 45.664049 
L 84.778087 44.955114 
L 85.992138 43.134284 
L 87.206188 39.446528 
L 88.420239 45.822723 
L 89.634289 45.974664 
L 90.84834 42.726708 
L 92.06239 48.244363 
L 93.276441 46.831367 
L 94.490492 43.807049 
L 95.704542 44.91532 
L 96.918593 46.55258 
L 98.132643 45.215073 
L 99.346694 55.274892 
L 100.560744 44.813587 
L 101.774795 50.648514 
L 102.988845 52.936672 
L 104.202896 47.816674 
L 105.416946 46.952626 
L 106.630997 50.479726 
L 107.845047 52.578045 
L 109.059098 49.837576 
L 110.273149 50.403763 
L 111.487199 46.681089 
L 112.70125 48.877341 
L 113.9153 50.786888 
L 115.129351 48.590919 
L 116.343401 52.644254 
L 117.557452 55.035282 
L 118.771502 51.199953 
L 119.985553 51.592055 
L 121.199603 54.212051 
L 122.413654 56.195422 
L 123.627705 53.768758 
L 124.841755 61.780918 
L 126.055806 53.293409 
L 127.269856 54.26024 
L 128.483907 60.626508 
L 129.697957 56.294243 
L 130.912008 59.579845 
L 132.126058 55.19406 
L 133.340109 63.418415 
L 134.554159 60.718144 
L 135.76821 56.610648 
L 136.98226 55.793965 
L 138.196311 65.487055 
L 139.410362 61.283948 
L 140.624412 59.411748 
L 141.838463 62.466791 
L 143.052513 56.758021 
L 144.266564 64.967784 
L 145.480614 61.08715 
L 146.694665 65.444682 
L 147.908715 59.025368 
L 149.122766 63.45122 
L 150.336816 64.867438 
L 151.550867 69.063589 
L 152.764918 59.999312 
L 153.978968 63.028373 
L 155.193019 63.458127 
L 156.407069 62.814627 
L 157.62112 65.44626 
L 158.83517 68.633988 
L 160.049221 69.507508 
L 161.263271 69.928536 
L 162.477322 64.283516 
L 163.691372 72.606654 
L 164.905423 70.604885 
L 166.119473 70.244946 
L 167.333524 69.124996 
L 168.547575 68.546396 
L 169.761625 74.040848 
L 170.975676 75.777501 
L 172.189726 71.34513 
L 173.403777 68.326374 
L 174.617827 69.981058 
L 177.045928 73.725734 
L 178.259979 72.384277 
L 179.474029 74.24173 
L 180.68808 71.631471 
L 181.90213 76.481033 
L 183.116181 74.22733 
L 184.330232 75.24661 
L 185.544282 73.747486 
L 186.758333 74.959907 
L 187.972383 68.778516 
L 189.186434 72.024503 
L 190.400484 72.331585 
L 191.614535 82.505931 
L 192.828585 78.046244 
L 194.042636 79.076079 
L 195.256686 76.160262 
L 196.470737 84.281148 
L 197.684788 74.890318 
L 198.898838 75.440682 
L 200.112889 82.301555 
L 201.326939 81.631899 
L 202.54099 81.362523 
L 203.75504 79.221293 
L 204.969091 77.761362 
L 206.183141 74.032282 
L 207.397192 80.498599 
L 208.611242 77.98754 
L 209.825293 79.873963 
L 211.039343 75.55908 
L 212.253394 78.561804 
L 213.467445 76.962402 
L 214.681495 83.938699 
L 215.895546 81.598216 
L 217.109596 83.459208 
L 218.323647 77.096896 
L 219.537697 79.571147 
L 220.751748 82.35924 
L 221.965798 82.860289 
L 223.179849 80.322766 
L 224.393899 83.708573 
L 225.60795 84.411726 
L 226.822001 80.521572 
L 228.036051 75.030214 
L 229.250102 82.636331 
L 230.464152 83.529887 
L 231.678203 85.268479 
L 232.892253 85.737235 
L 234.106304 80.543159 
L 235.320354 79.626802 
L 236.534405 81.963655 
L 237.748455 81.037242 
L 238.962506 81.61136 
L 240.176556 81.508412 
L 241.390607 86.112042 
L 242.604658 83.072485 
L 243.818708 81.417516 
L 245.032759 83.84551 
L 246.246809 82.909268 
L 247.46086 83.779739 
L 248.67491 82.32848 
L 249.888961 78.911349 
L 251.103011 82.321407 
L 252.317062 81.498879 
L 253.531112 78.672023 
L 254.745163 79.013508 
L 255.959213 75.941433 
L 257.173264 86.374 
L 258.387315 77.989107 
L 259.601365 81.573545 
L 260.815416 79.686707 
L 262.029466 77.553396 
L 263.243517 76.692344 
L 264.457567 76.634193 
L 265.671618 78.918246 
L 266.885668 74.662706 
L 268.099719 79.753425 
L 269.313769 79.154706 
L 270.52782 76.320706 
L 271.741871 79.882851 
L 272.955921 72.08919 
L 274.169972 75.058586 
L 275.384022 71.60348 
L 276.598073 77.527634 
L 277.812123 78.291617 
L 280.240224 74.694726 
L 281.454275 78.146271 
L 282.668325 75.199489 
L 283.882376 76.059792 
L 285.096426 71.248978 
L 286.310477 77.362204 
L 287.524528 72.333713 
L 288.738578 76.799305 
L 289.952629 77.426654 
L 291.166679 76.468218 
L 292.38073 77.548721 
L 293.59478 73.553501 
L 294.808831 70.819311 
L 296.022881 72.97899 
L 297.236932 71.43109 
L 297.236932 71.43109 
" clip-path="url(#pf228cae47f)" style="fill: none; stroke: #222222; stroke-width: 1.3; stroke-linecap: square"/>
   </g>
   <g id="line2d_7">
    <path d="M 298.450982 72.912561 
L 299.665033 72.649923 
L 300.879084 72.387652 
L 302.093134 72.125969 
L 303.307185 71.865093 
L 304.521235 71.605243 
L 305.735286 71.346638 
L 306.949336 71.089497 
L 308.163387 70.834034 
L 309.377437 70.580468 
L 310.591488 70.329012 
L 311.805538 70.079879 
L 313.019589 69.833282 
L 314.233639 69.58943 
L 315.44769 69.348533 
L 316.661741 69.110796 
L 317.875791 68.876425 
L 319.089842 68.645623 
L 320.303892 68.418588 
L 321.517943 68.19552 
L 322.731993 67.976614 
L 323.946044 67.762063 
L 325.160094 67.552056 
L 326.374145 67.346781 
L 327.588195 67.146423 
L 328.802246 66.951162 
L 330.016296 66.761177 
L 331.230347 66.576642 
L 332.444398 66.397728 
L 333.658448 66.224603 
L 334.872499 66.057431 
L 336.086549 65.896372 
L 337.3006 65.741583 
L 338.51465 65.593216 
L 339.728701 65.45142 
L 340.942751 65.316339 
L 342.156802 65.188114 
L 343.370852 65.066879 
L 344.584903 64.952766 
L 345.798954 64.845903 
L 347.013004 64.746411 
L 348.227055 64.654408 
L 349.441105 64.570008 
L 350.655156 64.493318 
L 351.869206 64.424442 
L 353.083257 64.363478 
L 354.297307 64.31052 
L 355.511358 64.265657 
L 356.725408 64.22897 
L 357.939459 64.20054 
L 359.153509 64.180438 
L 360.36756 64.168733 
L 361.581611 64.165486 
L 362.795661 64.170756 
L 364.009712 64.184594 
L 365.223762 64.207046 
L 366.437813 64.238153 
L 367.651863 64.277951 
L 368.865914 64.32647 
L 370.079964 64.383735 
L 371.294015 64.449764 
L 372.508065 64.524572 
L 373.722116 64.608165 
L 374.936167 64.700548 
L 376.150217 64.801716 
L 377.364268 64.911661 
L 378.578318 65.03037 
L 379.792369 65.157821 
L 381.006419 65.293992 
L 382.22047 65.43885 
L 383.43452 65.592361 
L 384.648571 65.754481 
L 385.862621 65.925166 
L 387.076672 66.104361 
L 388.290722 66.29201 
L 389.504773 66.48805 
L 390.718824 66.692413 
L 391.932874 66.905024 
L 393.146925 67.125806 
L 394.360975 67.354674 
L 395.575026 67.59154 
L 396.789076 67.83631 
L 398.003127 68.088885 
L 399.217177 68.34916 
L 400.431228 68.617029 
L 401.645278 68.892376 
L 402.859329 69.175084 
L 404.07338 69.465031 
L 405.28743 69.762088 
L 406.501481 70.066124 
L 407.715531 70.377003 
L 408.929582 70.694585 
L 410.143632 71.018724 
L 411.357683 71.349272 
L 412.571733 71.686077 
L 413.785784 72.02898 
L 414.999834 72.377822 
L 416.213885 72.732439 
L 417.427935 73.092662 
L 418.641986 73.458319 
" clip-path="url(#pf228cae47f)" style="fill: none; stroke: #0b7a8e; stroke-width: 1.6; stroke-linecap: square"/>
   </g>
   <g id="line2d_8">
    <path d="M 297.641615 126.636094 
L 297.641615 21.867591 
" clip-path="url(#pf228cae47f)" style="fill: none; stroke-dasharray: 0.8,1.32; stroke-dashoffset: 0; stroke: #888888; stroke-width: 0.8"/>
   </g>
   <g id="line2d_9">
    <path d="M 55.640874 103.354205 
L 418.641986 103.354205 
" clip-path="url(#pf228cae47f)" style="fill: none; stroke-dasharray: 2.96,1.28; stroke-dashoffset: 0; stroke: #c0392b; stroke-width: 0.8"/>
   </g>
   <g id="patch_4">
    <path d="M 55.640874 126.636094 
L 55.640874 21.867591 
" style="fill: none; stroke: #000000; stroke-width: 0.6; stroke-linejoin: miter; stroke-linecap: square"/>
   </g>
   <g id="patch_5">
    <path d="M 55.640874 126.636094 
L 418.641986 126.636094 
" style="fill: none; stroke: #000000; stroke-width: 0.6; stroke-linejoin: miter; stroke-linecap: square"/>
   </g>
   <g id="text_7">
    <text style="font-size: 6px; font-family: 'Arial', sans-serif; text-anchor: middle; fill: #555555" x="176.641245" y="121.979717" transform="rotate(-0 176.641245 121.979717)">context (30 min)</text>
   </g>
   <g id="text_8">
    <text style="font-size: 6px; font-family: 'Arial', sans-serif; text-anchor: middle; fill: #555555" x="358.141801" y="121.979717" transform="rotate(-0 358.141801 121.979717)">forecast horizon (→15 min)</text>
   </g>
   <g id="text_9">
    <text style="font-size: 5.5px; font-family: 'Arial', sans-serif; text-anchor: end; fill: #c0392b" x="406.541949" y="99.861921" transform="rotate(-0 406.541949 99.861921)">MAP 65</text>
   </g>
   <g id="text_10">
    <text style="font-weight: 700; font-size: 9px; font-family: 'Arial', sans-serif; text-anchor: end" x="19.340763" y="13.752246" transform="rotate(-0 19.340763 13.752246)">a</text>
   </g>
   <g id="text_11">
    <text style="font-weight: 700; font-size: 8px; font-family: 'Arial', sans-serif; text-anchor: start" x="55.640874" y="15.867591" transform="rotate(-0 55.640874 15.867591)">Forecasting task</text>
   </g>
   <g id="axes_2">
    <g id="patch_6">
     <path d="M 55.640874 168.543496 
L 418.641986 168.543496 
L 418.641986 143.399055 
L 55.640874 143.399055 
z
" style="fill: #ffffff"/>
    </g>
    <g id="patch_7">
     <path d="M 72.140925 168.543496 
L 292.141599 168.543496 
L 292.141599 143.399055 
L 72.140925 143.399055 
z
" clip-path="url(#pb950eaf985)" style="fill: #f2f2f2; stroke: #f2f2f2; stroke-width: 0.6; stroke-linejoin: miter"/>
    </g>
    <g id="FillBetweenPolyCollection_2">
     <defs>
      <path id="mc8c5cb2aeb" d="M 292.877387 -203.499555 
L 292.877387 -214.788753 
L 293.981069 -215.004924 
L 295.084751 -215.212959 
L 296.188434 -215.412753 
L 297.292116 -215.604255 
L 298.395798 -215.787462 
L 299.499481 -215.962416 
L 300.603163 -216.129201 
L 301.706845 -216.287936 
L 302.810528 -216.438773 
L 303.91421 -216.581892 
L 305.017892 -216.717496 
L 306.121574 -216.845807 
L 307.225257 -216.967065 
L 308.328939 -217.081518 
L 309.432621 -217.189428 
L 310.536304 -217.29106 
L 311.639986 -217.386683 
L 312.743668 -217.476567 
L 313.847351 -217.560982 
L 314.951033 -217.640194 
L 316.054715 -217.714466 
L 317.158398 -217.784055 
L 318.26208 -217.849212 
L 319.365762 -217.910179 
L 320.469445 -217.967191 
L 321.573127 -218.020475 
L 322.676809 -218.070249 
L 323.780491 -218.116721 
L 324.884174 -218.16009 
L 325.987856 -218.200545 
L 327.091538 -218.238269 
L 328.195221 -218.273431 
L 329.298903 -218.306195 
L 330.402585 -218.336713 
L 331.506268 -218.365132 
L 332.60995 -218.391589 
L 333.713632 -218.416212 
L 334.817315 -218.439123 
L 335.920997 -218.460436 
L 337.024679 -218.480259 
L 338.128361 -218.498692 
L 339.232044 -218.515829 
L 340.335726 -218.531759 
L 341.439408 -218.546565 
L 342.543091 -218.560323 
L 343.646773 -218.573106 
L 344.750455 -218.584983 
L 345.854138 -218.596015 
L 346.95782 -218.606262 
L 348.061502 -218.615778 
L 349.165185 -218.624615 
L 350.268867 -218.632821 
L 351.372549 -218.64044 
L 352.476232 -218.647514 
L 353.579914 -218.654081 
L 354.683596 -218.660177 
L 355.787278 -218.665835 
L 356.890961 -218.671087 
L 357.994643 -218.675962 
L 359.098325 -218.680486 
L 360.202008 -218.684684 
L 361.30569 -218.68858 
L 362.409372 -218.692196 
L 363.513055 -218.695551 
L 364.616737 -218.698664 
L 365.720419 -218.701553 
L 366.824102 -218.704233 
L 367.927784 -218.70672 
L 369.031466 -218.709027 
L 370.135148 -218.711167 
L 371.238831 -218.713153 
L 372.342513 -218.714996 
L 373.446195 -218.716705 
L 374.549878 -218.718291 
L 375.65356 -218.719762 
L 376.757242 -218.721127 
L 377.860925 -218.722393 
L 378.964607 -218.723567 
L 380.068289 -218.724656 
L 381.171972 -218.725667 
L 382.275654 -218.726604 
L 383.379336 -218.727474 
L 384.483018 -218.728281 
L 385.586701 -218.729029 
L 386.690383 -218.729723 
L 387.794065 -218.730367 
L 388.897748 -218.730964 
L 390.00143 -218.731518 
L 391.105112 -218.732032 
L 392.208795 -218.732509 
L 393.312477 -218.732951 
L 394.416159 -218.733361 
L 395.519842 -218.733741 
L 396.623524 -218.734094 
L 397.727206 -218.734421 
L 398.830889 -218.734725 
L 399.934571 -218.735006 
L 401.038253 -218.735267 
L 402.141935 -218.73551 
L 402.141935 -203.499555 
L 402.141935 -203.499555 
L 401.038253 -203.499555 
L 399.934571 -203.499555 
L 398.830889 -203.499555 
L 397.727206 -203.499555 
L 396.623524 -203.499555 
L 395.519842 -203.499555 
L 394.416159 -203.499555 
L 393.312477 -203.499555 
L 392.208795 -203.499555 
L 391.105112 -203.499555 
L 390.00143 -203.499555 
L 388.897748 -203.499555 
L 387.794065 -203.499555 
L 386.690383 -203.499555 
L 385.586701 -203.499555 
L 384.483018 -203.499555 
L 383.379336 -203.499555 
L 382.275654 -203.499555 
L 381.171972 -203.499555 
L 380.068289 -203.499555 
L 378.964607 -203.499555 
L 377.860925 -203.499555 
L 376.757242 -203.499555 
L 375.65356 -203.499555 
L 374.549878 -203.499555 
L 373.446195 -203.499555 
L 372.342513 -203.499555 
L 371.238831 -203.499555 
L 370.135148 -203.499555 
L 369.031466 -203.499555 
L 367.927784 -203.499555 
L 366.824102 -203.499555 
L 365.720419 -203.499555 
L 364.616737 -203.499555 
L 363.513055 -203.499555 
L 362.409372 -203.499555 
L 361.30569 -203.499555 
L 360.202008 -203.499555 
L 359.098325 -203.499555 
L 357.994643 -203.499555 
L 356.890961 -203.499555 
L 355.787278 -203.499555 
L 354.683596 -203.499555 
L 353.579914 -203.499555 
L 352.476232 -203.499555 
L 351.372549 -203.499555 
L 350.268867 -203.499555 
L 349.165185 -203.499555 
L 348.061502 -203.499555 
L 346.95782 -203.499555 
L 345.854138 -203.499555 
L 344.750455 -203.499555 
L 343.646773 -203.499555 
L 342.543091 -203.499555 
L 341.439408 -203.499555 
L 340.335726 -203.499555 
L 339.232044 -203.499555 
L 338.128361 -203.499555 
L 337.024679 -203.499555 
L 335.920997 -203.499555 
L 334.817315 -203.499555 
L 333.713632 -203.499555 
L 332.60995 -203.499555 
L 331.506268 -203.499555 
L 330.402585 -203.499555 
L 329.298903 -203.499555 
L 328.195221 -203.499555 
L 327.091538 -203.499555 
L 325.987856 -203.499555 
L 324.884174 -203.499555 
L 323.780491 -203.499555 
L 322.676809 -203.499555 
L 321.573127 -203.499555 
L 320.469445 -203.499555 
L 319.365762 -203.499555 
L 318.26208 -203.499555 
L 317.158398 -203.499555 
L 316.054715 -203.499555 
L 314.951033 -203.499555 
L 313.847351 -203.499555 
L 312.743668 -203.499555 
L 311.639986 -203.499555 
L 310.536304 -203.499555 
L 309.432621 -203.499555 
L 308.328939 -203.499555 
L 307.225257 -203.499555 
L 306.121574 -203.499555 
L 305.017892 -203.499555 
L 303.91421 -203.499555 
L 302.810528 -203.499555 
L 301.706845 -203.499555 
L 300.603163 -203.499555 
L 299.499481 -203.499555 
L 298.395798 -203.499555 
L 297.292116 -203.499555 
L 296.188434 -203.499555 
L 295.084751 -203.499555 
L 293.981069 -203.499555 
L 292.877387 -203.499555 
z
"/>
     </defs>
     <g clip-path="url(#pb950eaf985)">
      <use xlink:href="#mc8c5cb2aeb" x="0" y="371.281098" style="fill: #f1c27a; fill-opacity: 0.6"/>
     </g>
    </g>
    <g id="matplotlib.axis_3">
     <g id="xtick_1">
      <g id="line2d_10">
       <defs>
        <path id="mfca38dbd47" d="M 0 0 
L 0 2.5 
" style="stroke: #000000; stroke-width: 0.6"/>
       </defs>
       <g>
        <use xlink:href="#mfca38dbd47" x="72.140925" y="168.543496" style="stroke: #000000; stroke-width: 0.6"/>
       </g>
      </g>
      <g id="text_12">
       <text style="font-size: 6.5px; font-family: 'Arial', sans-serif; text-anchor: middle" x="72.140925" y="179.275674" transform="rotate(-0 72.140925 179.275674)">−30</text>
      </g>
     </g>
     <g id="xtick_2">
      <g id="line2d_11">
       <g>
        <use xlink:href="#mfca38dbd47" x="145.474483" y="168.543496" style="stroke: #000000; stroke-width: 0.6"/>
       </g>
      </g>
      <g id="text_13">
       <text style="font-size: 6.5px; font-family: 'Arial', sans-serif; text-anchor: middle" x="145.474483" y="179.275674" transform="rotate(-0 145.474483 179.275674)">−20</text>
      </g>
     </g>
     <g id="xtick_3">
      <g id="line2d_12">
       <g>
        <use xlink:href="#mfca38dbd47" x="218.808041" y="168.543496" style="stroke: #000000; stroke-width: 0.6"/>
       </g>
      </g>
      <g id="text_14">
       <text style="font-size: 6.5px; font-family: 'Arial', sans-serif; text-anchor: middle" x="218.808041" y="179.275674" transform="rotate(-0 218.808041 179.275674)">−10</text>
      </g>
     </g>
     <g id="xtick_4">
      <g id="line2d_13">
       <g>
        <use xlink:href="#mfca38dbd47" x="292.141599" y="168.543496" style="stroke: #000000; stroke-width: 0.6"/>
       </g>
      </g>
      <g id="text_15">
       <text style="font-size: 6.5px; font-family: 'Arial', sans-serif; text-anchor: middle" x="292.141599" y="179.275674" transform="rotate(-0 292.141599 179.275674)">0</text>
      </g>
     </g>
     <g id="xtick_5">
      <g id="line2d_14">
       <g>
        <use xlink:href="#mfca38dbd47" x="365.475156" y="168.543496" style="stroke: #000000; stroke-width: 0.6"/>
       </g>
      </g>
      <g id="text_16">
       <text style="font-size: 6.5px; font-family: 'Arial', sans-serif; text-anchor: middle" x="365.475156" y="179.275674" transform="rotate(-0 365.475156 179.275674)">10</text>
      </g>
     </g>
     <g id="text_17">
      <text style="font-size: 7px; font-family: 'Arial', sans-serif; text-anchor: middle" x="237.14143" y="189.739785" transform="rotate(-0 237.14143 189.739785)">time (min)</text>
     </g>
    </g>
    <g id="matplotlib.axis_4">
     <g id="text_18">
      <text style="font-size: 6px; font-family: 'Arial', sans-serif" transform="translate(43.398081 161.975026) rotate(-90)">drug</text>
      <text style="font-size: 6px; font-family: 'Arial', sans-serif" transform="translate(49.928472 166.310963) rotate(-90)">infusion</text>
     </g>
    </g>
    <g id="line2d_15">
     <path d="M 72.140925 167.781531 
L 204.582802 167.676455 
L 222.241719 167.436784 
L 233.278542 167.067972 
L 241.004318 166.611163 
L 247.626412 166.020444 
L 254.248506 165.186568 
L 259.766917 164.273987 
L 265.285329 163.157835 
L 271.907423 161.591078 
L 290.670022 156.948392 
L 296.188434 155.868345 
L 301.706845 154.993162 
L 308.328939 154.199579 
L 314.951033 153.640904 
L 322.676809 153.210849 
L 332.60995 152.889509 
L 346.95782 152.674836 
L 372.342513 152.566102 
L 402.141935 152.545588 
L 402.141935 152.545588 
" clip-path="url(#pb950eaf985)" style="fill: none; stroke: #e08214; stroke-width: 1.2; stroke-linecap: square"/>
    </g>
    <g id="line2d_16">
     <path d="M 292.141599 168.543496 
L 292.141599 143.399055 
" clip-path="url(#pb950eaf985)" style="fill: none; stroke-dasharray: 0.8,1.32; stroke-dashoffset: 0; stroke: #888888; stroke-width: 0.8"/>
    </g>
    <g id="patch_8">
     <path d="M 55.640874 168.543496 
L 418.641986 168.543496 
" style="fill: none; stroke: #000000; stroke-width: 0.6; stroke-linejoin: miter; stroke-linecap: square"/>
    </g>
    <g id="text_19">
     <text style="font-size: 5.5px; font-family: 'Arial', sans-serif; text-anchor: end; fill: #e08214" x="402.141935" y="149.189896" transform="rotate(-0 402.141935 149.189896)">known future covariate (M1)</text>
    </g>
   </g>
   <g id="legend_1">
    <g id="line2d_17">
     <path d="M 358.85183 28.896741 
L 364.35183 28.896741 
L 369.85183 28.896741 
" style="fill: none; stroke: #0b7a8e; stroke-width: 1.6; stroke-linecap: square"/>
    </g>
    <g id="text_20">
     <text style="font-size: 5.5px; font-family: 'Arial', sans-serif; text-anchor: start" x="374.25183" y="30.821741" transform="rotate(-0 374.25183 30.821741)">TiRex-2 median</text>
    </g>
    <g id="patch_9">
     <path d="M 358.85183 38.733362 
L 369.85183 38.733362 
L 369.85183 34.883362 
L 358.85183 34.883362 
z
" style="fill: #7fbfc9; fill-opacity: 0.5"/>
    </g>
    <g id="text_21">
     <text style="font-size: 5.5px; font-family: 'Arial', sans-serif; text-anchor: start" x="374.25183" y="38.733362" transform="rotate(-0 374.25183 38.733362)">10–90% interval</text>
    </g>
   </g>
  </g>
  <g id="axes_3">
   <g id="patch_10">
    <path d="M 474.488311 61.28674 
L 544.296217 61.28674 
L 544.296217 33.601663 
L 474.488311 33.601663 
z
" clip-path="url(#pc85dc84133)" style="fill: #e8eef2; stroke: #777777; stroke-width: 0.7; stroke-linejoin: miter"/>
   </g>
   <g id="patch_11">
    <path d="M 474.488311 97.038992 
L 544.296217 97.038992 
L 544.296217 69.353915 
L 474.488311 69.353915 
z
" clip-path="url(#pc85dc84133)" style="fill: #7fbfc9; stroke: #777777; stroke-width: 0.7; stroke-linejoin: miter"/>
   </g>
   <g id="patch_12">
    <path d="M 474.488311 132.791244 
L 544.296217 132.791244 
L 544.296217 105.106167 
L 474.488311 105.106167 
z
" clip-path="url(#pc85dc84133)" style="fill: #cfe3e7; stroke: #777777; stroke-width: 0.7; stroke-linejoin: miter"/>
   </g>
   <g id="patch_13">
    <path d="M 474.488311 168.543496 
L 544.296217 168.543496 
L 544.296217 140.858419 
L 474.488311 140.858419 
z
" clip-path="url(#pc85dc84133)" style="fill: #ead9bd; stroke: #777777; stroke-width: 0.7; stroke-linejoin: miter"/>
   </g>
   <g id="patch_14">
    <path d="M 553.603938 61.28674 
L 623.411844 61.28674 
L 623.411844 33.601663 
L 553.603938 33.601663 
z
" clip-path="url(#pc85dc84133)" style="fill: #e8eef2; stroke: #777777; stroke-width: 0.7; stroke-linejoin: miter"/>
   </g>
   <g id="patch_15">
    <path d="M 553.603938 97.038992 
L 623.411844 97.038992 
L 623.411844 69.353915 
L 553.603938 69.353915 
z
" clip-path="url(#pc85dc84133)" style="fill: #7fbfc9; stroke: #777777; stroke-width: 0.7; stroke-linejoin: miter"/>
   </g>
   <g id="patch_16">
    <path d="M 553.603938 132.791244 
L 623.411844 132.791244 
L 623.411844 105.106167 
L 553.603938 105.106167 
z
" clip-path="url(#pc85dc84133)" style="fill: #cfe3e7; stroke: #777777; stroke-width: 0.7; stroke-linejoin: miter"/>
   </g>
   <g id="patch_17">
    <path d="M 553.603938 168.543496 
L 623.411844 168.543496 
L 623.411844 140.858419 
L 553.603938 140.858419 
z
" clip-path="url(#pc85dc84133)" style="fill: #ead9bd; stroke: #777777; stroke-width: 0.7; stroke-linejoin: miter"/>
   </g>
   <g id="text_22">
    <text style="font-weight: 700; font-size: 6.2px; font-family: 'Arial', sans-serif; text-anchor: middle" x="509.392264" y="27.13898" transform="rotate(-0 509.392264 27.13898)">Development: VitalDB</text>
   </g>
   <g id="text_23">
    <text style="font-size: 5.6px; font-family: 'Arial', sans-serif" transform="translate(480.651139 45.845959)">VitalDB cases scanned</text>
    <text style="font-size: 5.6px; font-family: 'Arial', sans-serif" transform="translate(497.637951 51.940881)">n = 6,388</text>
   </g>
   <g id="patch_18">
    <path d="M 509.392264 63.874839 
Q 509.392264 65.175051 509.392264 65.357228 
" style="fill: none; stroke: #666666; stroke-linecap: round"/>
    <path d="M 510.792264 62.557228 
L 509.392264 65.357228 
L 507.992264 62.557228 
z
" style="fill: #666666; stroke: #666666; stroke-linecap: round"/>
   </g>
   <g id="text_24">
    <text style="font-size: 5.6px; font-family: 'Arial', sans-serif" transform="translate(487.759201 78.550696)">Anesthetic cohort</text>
    <text style="font-size: 5.6px; font-family: 'Arial', sans-serif" transform="translate(479.746826 84.645618)">(remifentanil + propofol)</text>
    <text style="font-size: 5.6px; font-family: 'Arial', sans-serif" transform="translate(497.637951 90.740649)">n = 2,873</text>
   </g>
   <g id="patch_19">
    <path d="M 509.392264 99.627091 
Q 509.392264 100.927303 509.392264 101.10948 
" style="fill: none; stroke: #666666; stroke-linecap: round"/>
    <path d="M 510.792264 98.30948 
L 509.392264 101.10948 
L 507.992264 98.30948 
z
" style="fill: #666666; stroke: #666666; stroke-linecap: round"/>
   </g>
   <g id="text_25">
    <text style="font-size: 5.6px; font-family: 'Arial', sans-serif" transform="translate(480.933764 117.350463)">Cases with ≥ 1 window</text>
    <text style="font-size: 5.6px; font-family: 'Arial', sans-serif" transform="translate(497.637951 123.445385)">n = 2,708</text>
   </g>
   <g id="patch_20">
    <path d="M 509.392264 135.379343 
Q 509.392264 136.679555 509.392264 136.861732 
" style="fill: none; stroke: #666666; stroke-linecap: round"/>
    <path d="M 510.792264 134.061732 
L 509.392264 136.861732 
L 507.992264 134.061732 
z
" style="fill: #666666; stroke: #666666; stroke-linecap: round"/>
   </g>
   <g id="text_26">
    <text style="font-size: 5.6px; font-family: 'Arial', sans-serif" transform="translate(486.985264 153.102715)">Forecast windows</text>
    <text style="font-size: 5.6px; font-family: 'Arial', sans-serif" transform="translate(496.080889 159.197637)">n = 47,642</text>
   </g>
   <g id="text_27">
    <text style="font-weight: 700; font-size: 6.2px; font-family: 'Arial', sans-serif; text-anchor: middle" x="588.507891" y="27.13898" transform="rotate(-0 588.507891 27.13898)">External: MOVER</text>
   </g>
   <g id="text_28">
    <text style="font-size: 5.6px; font-family: 'Arial', sans-serif" transform="translate(563.607141 45.845959)">SIS cases screened</text>
    <text style="font-size: 5.6px; font-family: 'Arial', sans-serif" transform="translate(575.196516 51.940881)">n = 19,101</text>
   </g>
   <g id="patch_21">
    <path d="M 588.507891 63.874839 
Q 588.507891 65.175051 588.507891 65.357228 
" style="fill: none; stroke: #666666; stroke-linecap: round"/>
    <path d="M 589.907891 62.557228 
L 588.507891 65.357228 
L 587.107891 62.557228 
z
" style="fill: #666666; stroke: #666666; stroke-linecap: round"/>
   </g>
   <g id="text_29">
    <text style="font-size: 5.6px; font-family: 'Arial', sans-serif" transform="translate(566.487641 78.55075)">Invasive arterial +</text>
    <text style="font-size: 5.6px; font-family: 'Arial', sans-serif" transform="translate(570.298266 84.645672)">infusion cohort</text>
    <text style="font-size: 5.6px; font-family: 'Arial', sans-serif" transform="translate(576.753578 90.740594)">n = 1,831</text>
   </g>
   <g id="patch_22">
    <path d="M 588.507891 99.627091 
Q 588.507891 100.927303 588.507891 101.10948 
" style="fill: none; stroke: #666666; stroke-linecap: round"/>
    <path d="M 589.907891 98.30948 
L 588.507891 101.10948 
L 587.107891 98.30948 
z
" style="fill: #666666; stroke: #666666; stroke-linecap: round"/>
   </g>
   <g id="text_30">
    <text style="font-size: 5.6px; font-family: 'Arial', sans-serif" transform="translate(560.049391 117.350463)">Cases with ≥ 1 window</text>
    <text style="font-size: 5.6px; font-family: 'Arial', sans-serif" transform="translate(576.753578 123.445385)">n = 1,827</text>
   </g>
   <g id="patch_23">
    <path d="M 588.507891 135.379343 
Q 588.507891 136.679555 588.507891 136.861732 
" style="fill: none; stroke: #666666; stroke-linecap: round"/>
    <path d="M 589.907891 134.061732 
L 588.507891 136.861732 
L 587.107891 134.061732 
z
" style="fill: #666666; stroke: #666666; stroke-linecap: round"/>
   </g>
   <g id="text_31">
    <text style="font-size: 5.6px; font-family: 'Arial', sans-serif" transform="translate(566.100891 153.102715)">Forecast windows</text>
    <text style="font-size: 5.6px; font-family: 'Arial', sans-serif" transform="translate(575.196516 159.197637)">n = 34,583</text>
   </g>
   <g id="text_32">
    <text style="font-weight: 700; font-size: 9px; font-family: 'Arial', sans-serif; text-anchor: end" x="455.872869" y="19.619282" transform="rotate(-0 455.872869 19.619282)">b</text>
   </g>
  </g>
  <g id="axes_4">
   <g id="patch_24">
    <path d="M 55.640874 341.411528 
L 210.769554 341.411528 
L 210.769554 236.643024 
L 55.640874 236.643024 
z
" style="fill: #ffffff"/>
   </g>
   <g id="patch_25">
    <path d="M 55.640874 341.411528 
L 159.059994 341.411528 
L 159.059994 236.643024 
L 55.640874 236.643024 
z
" clip-path="url(#pcaa7e43607)" style="fill: #f2f2f2; stroke: #f2f2f2; stroke-width: 0.6; stroke-linejoin: miter"/>
   </g>
   <g id="FillBetweenPolyCollection_3">
    <defs>
     <path id="m4acc93ce5c" d="M 159.92182 -99.840007 
L 159.92182 -95.718662 
L 160.783646 -94.835253 
L 161.645472 -94.114086 
L 162.507298 -93.155621 
L 163.369124 -92.747418 
L 164.23095 -92.82783 
L 165.092776 -92.516655 
L 165.954602 -92.174835 
L 166.816428 -92.055447 
L 167.678254 -92.26353 
L 168.54008 -92.043127 
L 169.401906 -91.654638 
L 170.263732 -91.676739 
L 171.125558 -91.98143 
L 171.987384 -91.746669 
L 172.84921 -91.485552 
L 173.711036 -91.470245 
L 174.572862 -91.79299 
L 175.434688 -91.609536 
L 176.296514 -91.328385 
L 177.15834 -91.37006 
L 178.020166 -91.733361 
L 178.881992 -91.493834 
L 179.743818 -91.172068 
L 180.605644 -91.187635 
L 181.46747 -91.606838 
L 182.329296 -91.370989 
L 183.191122 -91.101818 
L 184.052948 -91.19348 
L 184.914774 -91.52319 
L 185.7766 -91.332342 
L 186.638426 -91.089978 
L 187.500252 -91.102118 
L 188.362078 -91.355902 
L 189.223904 -91.27625 
L 190.08573 -91.058115 
L 190.947556 -90.966073 
L 191.809382 -91.265459 
L 192.671208 -91.140375 
L 193.533034 -90.909831 
L 194.39486 -90.990013 
L 195.256686 -91.292925 
L 196.118512 -91.097691 
L 196.980338 -90.762017 
L 197.842164 -90.853249 
L 198.70399 -91.162706 
L 199.565816 -90.982639 
L 200.427642 -90.794669 
L 201.289468 -90.797057 
L 202.151294 -91.135699 
L 203.01312 -91.058575 
L 203.874946 -90.748249 
L 204.736772 -90.825912 
L 205.598598 -91.091966 
L 206.460424 -90.970639 
L 207.32225 -90.701328 
L 208.184076 -90.691507 
L 209.045902 -90.990542 
L 209.907728 -90.879297 
L 210.769554 -90.691477 
L 210.769554 -101.646331 
L 210.769554 -101.646331 
L 209.907728 -101.796423 
L 209.045902 -101.869021 
L 208.184076 -101.724464 
L 207.32225 -101.608353 
L 206.460424 -101.736634 
L 205.598598 -101.85923 
L 204.736772 -101.728711 
L 203.874946 -101.555388 
L 203.01312 -101.753829 
L 202.151294 -101.745197 
L 201.289468 -101.656172 
L 200.427642 -101.554139 
L 199.565816 -101.686736 
L 198.70399 -101.832173 
L 197.842164 -101.597362 
L 196.980338 -101.472099 
L 196.118512 -101.738872 
L 195.256686 -101.798691 
L 194.39486 -101.522406 
L 193.533034 -101.439277 
L 192.671208 -101.708458 
L 191.809382 -101.696648 
L 190.947556 -101.496148 
L 190.08573 -101.37634 
L 189.223904 -101.665644 
L 188.362078 -101.75277 
L 187.500252 -101.489874 
L 186.638426 -101.227307 
L 185.7766 -101.311156 
L 184.914774 -101.36501 
L 184.052948 -101.25915 
L 183.191122 -101.137394 
L 182.329296 -101.256872 
L 181.46747 -101.314523 
L 180.605644 -101.161983 
L 179.743818 -101.033052 
L 178.881992 -101.218145 
L 178.020166 -101.311336 
L 177.15834 -101.124734 
L 176.296514 -101.055113 
L 175.434688 -101.238038 
L 174.572862 -101.287886 
L 173.711036 -101.126433 
L 172.84921 -101.013049 
L 171.987384 -101.177819 
L 171.125558 -101.372254 
L 170.263732 -101.119439 
L 169.401906 -101.008243 
L 168.54008 -101.199281 
L 167.678254 -101.20069 
L 166.816428 -101.007474 
L 165.954602 -100.904242 
L 165.092776 -101.091013 
L 164.23095 -101.03513 
L 163.369124 -100.815537 
L 162.507298 -100.642424 
L 161.645472 -100.73004 
L 160.783646 -100.43647 
L 159.92182 -99.840007 
z
"/>
    </defs>
    <g clip-path="url(#pcaa7e43607)">
     <use xlink:href="#m4acc93ce5c" x="0" y="371.281098" style="fill: #7fbfc9; fill-opacity: 0.5"/>
    </g>
   </g>
   <g id="line2d_18">
    <path d="M 55.640874 308.67137 
L 210.769554 308.67137 
" clip-path="url(#pcaa7e43607)" style="fill: none; stroke-dasharray: 2.59,1.12; stroke-dashoffset: 0; stroke: #c0392b; stroke-width: 0.7"/>
   </g>
   <g id="matplotlib.axis_5">
    <g id="xtick_6">
     <g id="line2d_19">
      <g>
       <use xlink:href="#mfca38dbd47" x="55.640874" y="341.411528" style="stroke: #000000; stroke-width: 0.6"/>
      </g>
     </g>
     <g id="text_33">
      <text style="font-size: 6.5px; font-family: 'Arial', sans-serif; text-anchor: middle" x="55.640874" y="352.143705" transform="rotate(-0 55.640874 352.143705)">−30</text>
     </g>
    </g>
    <g id="xtick_7">
     <g id="line2d_20">
      <g>
       <use xlink:href="#mfca38dbd47" x="90.113914" y="341.411528" style="stroke: #000000; stroke-width: 0.6"/>
      </g>
     </g>
     <g id="text_34">
      <text style="font-size: 6.5px; font-family: 'Arial', sans-serif; text-anchor: middle" x="90.113914" y="352.143705" transform="rotate(-0 90.113914 352.143705)">−20</text>
     </g>
    </g>
    <g id="xtick_8">
     <g id="line2d_21">
      <g>
       <use xlink:href="#mfca38dbd47" x="124.586954" y="341.411528" style="stroke: #000000; stroke-width: 0.6"/>
      </g>
     </g>
     <g id="text_35">
      <text style="font-size: 6.5px; font-family: 'Arial', sans-serif; text-anchor: middle" x="124.586954" y="352.143705" transform="rotate(-0 124.586954 352.143705)">−10</text>
     </g>
    </g>
    <g id="xtick_9">
     <g id="line2d_22">
      <g>
       <use xlink:href="#mfca38dbd47" x="159.059994" y="341.411528" style="stroke: #000000; stroke-width: 0.6"/>
      </g>
     </g>
     <g id="text_36">
      <text style="font-size: 6.5px; font-family: 'Arial', sans-serif; text-anchor: middle" x="159.059994" y="352.143705" transform="rotate(-0 159.059994 352.143705)">0</text>
     </g>
    </g>
    <g id="xtick_10">
     <g id="line2d_23">
      <g>
       <use xlink:href="#mfca38dbd47" x="193.533034" y="341.411528" style="stroke: #000000; stroke-width: 0.6"/>
      </g>
     </g>
     <g id="text_37">
      <text style="font-size: 6.5px; font-family: 'Arial', sans-serif; text-anchor: middle" x="193.533034" y="352.143705" transform="rotate(-0 193.533034 352.143705)">10</text>
     </g>
    </g>
    <g id="text_38">
     <text style="font-size: 7px; font-family: 'Arial', sans-serif; text-anchor: middle" x="133.205214" y="362.607817" transform="rotate(-0 133.205214 362.607817)">time (min)</text>
    </g>
   </g>
   <g id="matplotlib.axis_6">
    <g id="ytick_6">
     <g id="line2d_24">
      <g>
       <use xlink:href="#m7f50133021" x="55.640874" y="341.411528" style="stroke: #000000; stroke-width: 0.6"/>
      </g>
     </g>
     <g id="text_39">
      <text style="font-size: 6.5px; font-family: 'Arial', sans-serif; text-anchor: end" x="49.640874" y="343.777616" transform="rotate(-0 49.640874 343.777616)">40</text>
     </g>
    </g>
    <g id="ytick_7">
     <g id="line2d_25">
      <g>
       <use xlink:href="#m7f50133021" x="55.640874" y="328.315465" style="stroke: #000000; stroke-width: 0.6"/>
      </g>
     </g>
     <g id="text_40">
      <text style="font-size: 6.5px; font-family: 'Arial', sans-serif; text-anchor: end" x="49.640874" y="330.681553" transform="rotate(-0 49.640874 330.681553)">50</text>
     </g>
    </g>
    <g id="ytick_8">
     <g id="line2d_26">
      <g>
       <use xlink:href="#m7f50133021" x="55.640874" y="315.219402" style="stroke: #000000; stroke-width: 0.6"/>
      </g>
     </g>
     <g id="text_41">
      <text style="font-size: 6.5px; font-family: 'Arial', sans-serif; text-anchor: end" x="49.640874" y="317.58549" transform="rotate(-0 49.640874 317.58549)">60</text>
     </g>
    </g>
    <g id="ytick_9">
     <g id="line2d_27">
      <g>
       <use xlink:href="#m7f50133021" x="55.640874" y="302.123339" style="stroke: #000000; stroke-width: 0.6"/>
      </g>
     </g>
     <g id="text_42">
      <text style="font-size: 6.5px; font-family: 'Arial', sans-serif; text-anchor: end" x="49.640874" y="304.489427" transform="rotate(-0 49.640874 304.489427)">70</text>
     </g>
    </g>
    <g id="ytick_10">
     <g id="line2d_28">
      <g>
       <use xlink:href="#m7f50133021" x="55.640874" y="289.027276" style="stroke: #000000; stroke-width: 0.6"/>
      </g>
     </g>
     <g id="text_43">
      <text style="font-size: 6.5px; font-family: 'Arial', sans-serif; text-anchor: end" x="49.640874" y="291.393364" transform="rotate(-0 49.640874 291.393364)">80</text>
     </g>
    </g>
    <g id="ytick_11">
     <g id="line2d_29">
      <g>
       <use xlink:href="#m7f50133021" x="55.640874" y="275.931213" style="stroke: #000000; stroke-width: 0.6"/>
      </g>
     </g>
     <g id="text_44">
      <text style="font-size: 6.5px; font-family: 'Arial', sans-serif; text-anchor: end" x="49.640874" y="278.297301" transform="rotate(-0 49.640874 278.297301)">90</text>
     </g>
    </g>
    <g id="ytick_12">
     <g id="line2d_30">
      <g>
       <use xlink:href="#m7f50133021" x="55.640874" y="262.83515" style="stroke: #000000; stroke-width: 0.6"/>
      </g>
     </g>
     <g id="text_45">
      <text style="font-size: 6.5px; font-family: 'Arial', sans-serif; text-anchor: end" x="49.640874" y="265.201238" transform="rotate(-0 49.640874 265.201238)">100</text>
     </g>
    </g>
    <g id="ytick_13">
     <g id="line2d_31">
      <g>
       <use xlink:href="#m7f50133021" x="55.640874" y="249.739087" style="stroke: #000000; stroke-width: 0.6"/>
      </g>
     </g>
     <g id="text_46">
      <text style="font-size: 6.5px; font-family: 'Arial', sans-serif; text-anchor: end" x="49.640874" y="252.105175" transform="rotate(-0 49.640874 252.105175)">110</text>
     </g>
    </g>
    <g id="ytick_14">
     <g id="line2d_32">
      <g>
       <use xlink:href="#m7f50133021" x="55.640874" y="236.643024" style="stroke: #000000; stroke-width: 0.6"/>
      </g>
     </g>
     <g id="text_47">
      <text style="font-size: 6.5px; font-family: 'Arial', sans-serif; text-anchor: end" x="49.640874" y="239.009112" transform="rotate(-0 49.640874 239.009112)">120</text>
     </g>
    </g>
    <g id="text_48">
     <text style="font-size: 7px; font-family: 'Arial', sans-serif; text-anchor: middle" x="33.323765" y="289.027276" transform="rotate(-90 33.323765 289.027276)">MAP (mmHg)</text>
    </g>
   </g>
   <g id="line2d_33">
    <path d="M 159.92182 272.002394 
L 160.783646 273.312 
L 161.645472 274.621606 
L 162.507298 274.621606 
L 163.369124 272.002394 
L 164.23095 273.312 
L 165.092776 272.002394 
L 165.954602 272.002394 
L 166.816428 273.312 
L 167.678254 272.002394 
L 168.54008 273.312 
L 169.401906 274.621606 
L 170.263732 272.002394 
L 171.125558 274.621606 
L 171.987384 275.931213 
L 172.84921 274.621606 
L 173.711036 273.312 
L 174.572862 274.621606 
L 175.434688 275.931213 
L 176.296514 275.931213 
L 177.15834 274.621606 
L 178.020166 274.621606 
L 178.881992 275.931213 
L 179.743818 273.312 
L 180.605644 273.312 
L 181.46747 272.002394 
L 182.329296 273.312 
L 183.191122 273.312 
L 184.052948 273.312 
L 184.914774 273.312 
L 185.7766 273.312 
L 186.638426 273.312 
L 187.500252 272.002394 
L 188.362078 272.002394 
L 189.223904 272.002394 
L 190.08573 274.621606 
L 190.947556 273.312 
L 191.809382 273.312 
L 192.671208 274.621606 
L 193.533034 274.621606 
L 194.39486 273.312 
L 195.256686 273.312 
L 196.118512 274.621606 
L 196.980338 274.621606 
L 197.842164 274.621606 
L 198.70399 274.621606 
L 199.565816 275.931213 
L 200.427642 275.931213 
L 201.289468 277.240819 
L 202.151294 275.931213 
L 203.01312 275.931213 
L 203.874946 277.240819 
L 204.736772 275.931213 
L 205.598598 278.550425 
L 206.460424 278.550425 
L 207.32225 278.550425 
L 208.184076 277.240819 
L 209.045902 275.931213 
L 209.907728 277.240819 
L 210.769554 278.550425 
" clip-path="url(#pcaa7e43607)" style="fill: none; stroke: #aeb4ba; stroke-width: 1.2; stroke-linecap: square"/>
   </g>
   <g id="patch_26">
    <path d="M 55.640874 341.411528 
L 55.640874 236.643024 
" style="fill: none; stroke: #000000; stroke-width: 0.6; stroke-linejoin: miter; stroke-linecap: square"/>
   </g>
   <g id="patch_27">
    <path d="M 55.640874 341.411528 
L 210.769554 341.411528 
" style="fill: none; stroke: #000000; stroke-width: 0.6; stroke-linejoin: miter; stroke-linecap: square"/>
   </g>
   <g id="line2d_34">
    <path d="M 159.059994 341.411528 
L 159.059994 236.643024 
" clip-path="url(#pcaa7e43607)" style="fill: none; stroke-dasharray: 0.7,1.155; stroke-dashoffset: 0; stroke: #888888; stroke-width: 0.7"/>
   </g>
   <g id="text_49">
    <text style="font-weight: 700; font-size: 9px; font-family: 'Arial', sans-serif; text-anchor: end" x="12.204844" y="228.527679" transform="rotate(-0 12.204844 228.527679)">c</text>
   </g>
   <g id="text_50">
    <text style="font-weight: 700; font-size: 7px; font-family: 'Arial', sans-serif; text-anchor: middle" x="133.205214" y="230.643024" transform="rotate(-0 133.205214 230.643024)">Steady</text>
   </g>
   <g id="line2d_35">
    <path d="M 55.640874 274.621606 
L 56.5027 275.931213 
L 57.364526 278.550425 
L 58.226352 279.860031 
L 59.088178 281.169638 
L 59.950004 277.240819 
L 60.81183 277.240819 
L 61.673656 279.860031 
L 62.535482 281.169638 
L 63.397308 278.550425 
L 64.259134 279.860031 
L 65.12096 279.860031 
L 65.982786 279.860031 
L 66.844612 277.240819 
L 67.706438 278.550425 
L 68.568264 279.860031 
L 69.43009 281.169638 
L 70.291916 277.240819 
L 71.153742 278.550425 
L 72.015568 279.860031 
L 72.877394 279.860031 
L 73.73922 277.240819 
L 74.601046 277.240819 
L 75.462872 279.860031 
L 76.324698 278.550425 
L 77.186524 274.621606 
L 78.04835 273.312 
L 78.910176 273.312 
L 79.772002 273.312 
L 80.633828 270.692787 
L 81.495654 270.692787 
L 82.35748 270.692787 
L 83.219306 270.692787 
L 84.081132 270.692787 
L 84.942958 272.002394 
L 85.804784 273.312 
L 86.66661 273.312 
L 87.528436 272.002394 
L 88.390262 272.002394 
L 89.252088 272.002394 
L 90.113914 274.621606 
L 90.97574 273.312 
L 91.837566 272.002394 
L 92.699392 273.312 
L 93.561218 274.621606 
L 94.423044 273.312 
L 95.28487 273.312 
L 96.146696 272.002394 
L 97.008522 273.312 
L 97.870348 275.931213 
L 98.732174 277.240819 
L 99.594 277.240819 
L 100.455826 277.240819 
L 101.317652 277.240819 
L 102.179478 278.550425 
L 103.041304 278.550425 
L 103.90313 278.550425 
L 104.764956 279.860031 
L 105.626782 278.550425 
L 106.488608 279.860031 
L 107.350434 279.860031 
L 108.21226 277.240819 
L 109.074086 275.931213 
L 109.935912 277.240819 
L 110.797738 275.931213 
L 111.659564 274.621606 
L 112.52139 273.312 
L 113.383216 268.073575 
L 114.245042 266.763969 
L 115.106868 270.692787 
L 115.968694 270.692787 
L 116.83052 270.692787 
L 117.692346 270.692787 
L 118.554172 272.002394 
L 119.415998 272.002394 
L 120.277824 275.931213 
L 121.13965 273.312 
L 122.001476 274.621606 
L 122.863302 275.931213 
L 123.725128 275.931213 
L 124.586954 274.621606 
L 125.44878 274.621606 
L 126.310606 273.312 
L 127.172432 275.931213 
L 128.034258 274.621606 
L 128.896084 273.312 
L 129.75791 274.621606 
L 130.619736 274.621606 
L 131.481562 273.312 
L 132.343388 274.621606 
L 133.205214 274.621606 
L 134.06704 274.621606 
L 134.928866 275.931213 
L 135.790692 273.312 
L 136.652518 273.312 
L 137.514344 277.240819 
L 138.37617 277.240819 
L 139.237996 281.169638 
L 140.099822 281.169638 
L 140.961648 278.550425 
L 141.823474 272.002394 
L 142.6853 270.692787 
L 143.547126 272.002394 
L 144.408952 272.002394 
L 145.270778 273.312 
L 146.132604 273.312 
L 146.99443 275.931213 
L 147.856256 278.550425 
L 148.718082 278.550425 
L 149.579908 278.550425 
L 150.441734 277.240819 
L 151.30356 274.621606 
L 152.165386 273.312 
L 153.027212 272.002394 
L 153.889038 270.692787 
L 154.750864 272.002394 
L 155.61269 270.692787 
L 156.474516 273.312 
L 157.336342 273.312 
L 158.198168 273.312 
" clip-path="url(#pcaa7e43607)" style="fill: none; stroke: #222222; stroke-width: 1.1; stroke-linecap: square"/>
   </g>
   <g id="line2d_36">
    <path d="M 159.92182 273.399406 
L 160.783646 273.51235 
L 161.645472 273.705206 
L 162.507298 274.132123 
L 163.369124 274.26397 
L 164.23095 274.195639 
L 165.092776 274.367702 
L 165.954602 274.588804 
L 166.816428 274.660713 
L 167.678254 274.564145 
L 168.54008 274.715247 
L 169.401906 274.938527 
L 170.263732 274.920642 
L 171.125558 274.774746 
L 171.987384 274.909751 
L 172.84921 275.104965 
L 173.711036 275.094304 
L 174.572862 274.926247 
L 175.434688 275.056007 
L 176.296514 275.228091 
L 177.15834 275.196048 
L 178.020166 275.036893 
L 178.881992 275.14641 
L 179.743818 275.302407 
L 180.605644 275.273152 
L 181.46747 275.104016 
L 182.329296 275.20473 
L 183.191122 275.345091 
L 184.052948 275.280536 
L 184.914774 275.157441 
L 185.7766 275.224633 
L 186.638426 275.380371 
L 187.500252 275.484782 
L 188.362078 275.361527 
L 189.223904 275.417749 
L 190.08573 275.571908 
L 190.947556 275.554173 
L 191.809382 275.390792 
L 192.671208 275.456976 
L 193.533034 275.596277 
L 194.39486 275.596767 
L 195.256686 275.394009 
L 196.118512 275.482424 
L 196.980338 275.656386 
L 197.842164 275.60497 
L 198.70399 275.417639 
L 199.565816 275.490278 
L 200.427642 275.634595 
L 201.289468 275.603521 
L 202.151294 275.397187 
L 203.01312 275.486051 
L 203.874946 275.637352 
L 204.736772 275.574746 
L 205.598598 275.426292 
L 206.460424 275.501448 
L 207.32225 275.615581 
L 208.184076 275.5936 
L 209.045902 275.427661 
L 209.907728 275.506214 
L 210.769554 275.621026 
" clip-path="url(#pcaa7e43607)" style="fill: none; stroke: #0b7a8e; stroke-width: 1.9; stroke-linecap: square"/>
   </g>
   <g id="legend_2">
    <g id="line2d_37">
     <path d="M 60.590874 243.672174 
L 66.090874 243.672174 
L 71.590874 243.672174 
" style="fill: none; stroke: #aeb4ba; stroke-width: 1.2; stroke-linecap: square"/>
    </g>
    <g id="text_51">
     <text style="font-size: 5.5px; font-family: 'Arial', sans-serif; text-anchor: start" x="75.990874" y="245.597174" transform="rotate(-0 75.990874 245.597174)">observed (truth)</text>
    </g>
    <g id="patch_28">
     <path d="M 60.590874 253.508903 
L 71.590874 253.508903 
L 71.590874 249.658903 
L 60.590874 249.658903 
z
" style="fill: #7fbfc9; fill-opacity: 0.5"/>
    </g>
    <g id="text_52">
     <text style="font-size: 5.5px; font-family: 'Arial', sans-serif; text-anchor: start" x="75.990874" y="253.508903" transform="rotate(-0 75.990874 253.508903)">10–90%</text>
    </g>
    <g id="line2d_38">
     <path d="M 60.590874 259.495524 
L 66.090874 259.495524 
L 71.590874 259.495524 
" style="fill: none; stroke: #0b7a8e; stroke-width: 1.9; stroke-linecap: square"/>
    </g>
    <g id="text_53">
     <text style="font-size: 5.5px; font-family: 'Arial', sans-serif; text-anchor: start" x="75.990874" y="261.420524" transform="rotate(-0 75.990874 261.420524)">TiRex-2 median</text>
    </g>
   </g>
  </g>
  <g id="axes_5">
   <g id="patch_29">
    <path d="M 263.513306 341.411528 
L 418.641986 341.411528 
L 418.641986 236.643024 
L 263.513306 236.643024 
z
" style="fill: #ffffff"/>
   </g>
   <g id="patch_30">
    <path d="M 263.513306 341.411528 
L 366.932426 341.411528 
L 366.932426 236.643024 
L 263.513306 236.643024 
z
" clip-path="url(#pa4bb78b79e)" style="fill: #f2f2f2; stroke: #f2f2f2; stroke-width: 0.6; stroke-linejoin: miter"/>
   </g>
   <g id="FillBetweenPolyCollection_4">
    <defs>
     <path id="m82a4ed416f" d="M 367.794252 -88.451582 
L 367.794252 -78.937143 
L 368.656078 -78.679382 
L 369.517904 -78.539581 
L 370.37973 -78.851715 
L 371.241556 -78.536623 
L 372.103382 -78.171184 
L 372.965208 -78.417125 
L 373.827034 -78.301184 
L 374.68886 -78.082989 
L 375.550686 -78.378588 
L 376.412512 -78.123455 
L 377.274338 -77.829135 
L 378.136164 -77.982944 
L 378.99799 -77.899895 
L 379.859816 -77.668502 
L 380.721642 -77.924974 
L 381.583468 -77.782035 
L 382.445294 -77.680252 
L 383.30712 -77.801419 
L 384.168946 -77.679832 
L 385.030772 -77.47067 
L 385.892598 -77.82313 
L 386.754424 -77.555498 
L 387.61625 -77.307069 
L 388.478076 -77.542119 
L 389.339902 -77.429425 
L 390.201728 -77.172204 
L 391.063554 -77.417075 
L 391.92538 -77.228126 
L 392.787206 -77.155978 
L 393.649032 -77.17669 
L 394.510858 -77.155518 
L 395.372684 -76.813019 
L 396.23451 -77.142789 
L 397.096336 -76.928771 
L 397.958162 -76.996673 
L 398.819988 -76.802538 
L 399.681814 -76.844452 
L 400.54364 -76.638258 
L 401.405466 -76.693651 
L 402.267292 -76.43616 
L 403.129118 -76.641545 
L 403.990944 -76.599191 
L 404.85277 -76.519579 
L 405.714596 -76.404597 
L 406.576422 -76.469561 
L 407.438248 -76.347795 
L 408.300074 -76.393946 
L 409.1619 -76.388111 
L 410.023726 -76.395224 
L 410.885552 -76.30694 
L 411.747378 -76.382655 
L 412.609204 -76.187581 
L 413.47103 -76.253415 
L 414.332856 -76.21242 
L 415.194682 -76.065485 
L 416.056508 -75.972854 
L 416.918334 -76.162023 
L 417.78016 -76.023541 
L 418.641986 -76.040486 
L 418.641986 -95.875528 
L 418.641986 -95.875528 
L 417.78016 -95.940723 
L 416.918334 -95.996875 
L 416.056508 -95.844215 
L 415.194682 -95.938645 
L 414.332856 -95.775783 
L 413.47103 -95.679215 
L 412.609204 -95.588782 
L 411.747378 -95.699498 
L 410.885552 -95.443705 
L 410.023726 -95.623453 
L 409.1619 -95.486039 
L 408.300074 -95.396925 
L 407.438248 -95.27402 
L 406.576422 -95.266706 
L 405.714596 -95.040428 
L 404.85277 -95.090886 
L 403.990944 -94.984936 
L 403.129118 -94.807367 
L 402.267292 -94.918412 
L 401.405466 -94.963144 
L 400.54364 -94.67449 
L 399.681814 -94.554172 
L 398.819988 -94.56864 
L 397.958162 -94.207707 
L 397.096336 -94.290606 
L 396.23451 -94.134819 
L 395.372684 -93.731112 
L 394.510858 -95.696131 
L 393.649032 -95.592059 
L 392.787206 -95.106512 
L 391.92538 -95.098519 
L 391.063554 -95.098419 
L 390.201728 -94.542642 
L 389.339902 -94.616589 
L 388.478076 -94.649501 
L 387.61625 -94.241358 
L 386.754424 -94.181689 
L 385.892598 -94.272322 
L 385.030772 -93.664718 
L 384.168946 -93.716175 
L 383.30712 -93.691875 
L 382.445294 -93.390871 
L 381.583468 -93.28634 
L 380.721642 -93.41642 
L 379.859816 -92.779181 
L 378.99799 -92.847713 
L 378.136164 -92.675969 
L 377.274338 -92.056466 
L 376.412512 -91.950007 
L 375.550686 -91.892206 
L 374.68886 -91.224733 
L 373.827034 -91.189483 
L 372.965208 -90.823255 
L 372.103382 -90.01719 
L 371.241556 -90.009397 
L 370.37973 -89.760289 
L 369.517904 -89.1822 
L 368.656078 -88.737489 
L 367.794252 -88.451582 
z
"/>
    </defs>
    <g clip-path="url(#pa4bb78b79e)">
     <use xlink:href="#m82a4ed416f" x="0" y="371.281098" style="fill: #7fbfc9; fill-opacity: 0.5"/>
    </g>
   </g>
   <g id="line2d_39">
    <path d="M 263.513306 308.67137 
L 418.641986 308.67137 
" clip-path="url(#pa4bb78b79e)" style="fill: none; stroke-dasharray: 2.59,1.12; stroke-dashoffset: 0; stroke: #c0392b; stroke-width: 0.7"/>
   </g>
   <g id="matplotlib.axis_7">
    <g id="xtick_11">
     <g id="line2d_40">
      <g>
       <use xlink:href="#mfca38dbd47" x="263.513306" y="341.411528" style="stroke: #000000; stroke-width: 0.6"/>
      </g>
     </g>
     <g id="text_54">
      <text style="font-size: 6.5px; font-family: 'Arial', sans-serif; text-anchor: middle" x="263.513306" y="352.143705" transform="rotate(-0 263.513306 352.143705)">−30</text>
     </g>
    </g>
    <g id="xtick_12">
     <g id="line2d_41">
      <g>
       <use xlink:href="#mfca38dbd47" x="297.986346" y="341.411528" style="stroke: #000000; stroke-width: 0.6"/>
      </g>
     </g>
     <g id="text_55">
      <text style="font-size: 6.5px; font-family: 'Arial', sans-serif; text-anchor: middle" x="297.986346" y="352.143705" transform="rotate(-0 297.986346 352.143705)">−20</text>
     </g>
    </g>
    <g id="xtick_13">
     <g id="line2d_42">
      <g>
       <use xlink:href="#mfca38dbd47" x="332.459386" y="341.411528" style="stroke: #000000; stroke-width: 0.6"/>
      </g>
     </g>
     <g id="text_56">
      <text style="font-size: 6.5px; font-family: 'Arial', sans-serif; text-anchor: middle" x="332.459386" y="352.143705" transform="rotate(-0 332.459386 352.143705)">−10</text>
     </g>
    </g>
    <g id="xtick_14">
     <g id="line2d_43">
      <g>
       <use xlink:href="#mfca38dbd47" x="366.932426" y="341.411528" style="stroke: #000000; stroke-width: 0.6"/>
      </g>
     </g>
     <g id="text_57">
      <text style="font-size: 6.5px; font-family: 'Arial', sans-serif; text-anchor: middle" x="366.932426" y="352.143705" transform="rotate(-0 366.932426 352.143705)">0</text>
     </g>
    </g>
    <g id="xtick_15">
     <g id="line2d_44">
      <g>
       <use xlink:href="#mfca38dbd47" x="401.405466" y="341.411528" style="stroke: #000000; stroke-width: 0.6"/>
      </g>
     </g>
     <g id="text_58">
      <text style="font-size: 6.5px; font-family: 'Arial', sans-serif; text-anchor: middle" x="401.405466" y="352.143705" transform="rotate(-0 401.405466 352.143705)">10</text>
     </g>
    </g>
    <g id="text_59">
     <text style="font-size: 7px; font-family: 'Arial', sans-serif; text-anchor: middle" x="341.077646" y="362.607817" transform="rotate(-0 341.077646 362.607817)">time (min)</text>
    </g>
   </g>
   <g id="matplotlib.axis_8">
    <g id="ytick_15">
     <g id="line2d_45">
      <g>
       <use xlink:href="#m7f50133021" x="263.513306" y="341.411528" style="stroke: #000000; stroke-width: 0.6"/>
      </g>
     </g>
     <g id="text_60">
      <text style="font-size: 6.5px; font-family: 'Arial', sans-serif; text-anchor: end" x="257.513306" y="343.777616" transform="rotate(-0 257.513306 343.777616)">40</text>
     </g>
    </g>
    <g id="ytick_16">
     <g id="line2d_46">
      <g>
       <use xlink:href="#m7f50133021" x="263.513306" y="328.315465" style="stroke: #000000; stroke-width: 0.6"/>
      </g>
     </g>
     <g id="text_61">
      <text style="font-size: 6.5px; font-family: 'Arial', sans-serif; text-anchor: end" x="257.513306" y="330.681553" transform="rotate(-0 257.513306 330.681553)">50</text>
     </g>
    </g>
    <g id="ytick_17">
     <g id="line2d_47">
      <g>
       <use xlink:href="#m7f50133021" x="263.513306" y="315.219402" style="stroke: #000000; stroke-width: 0.6"/>
      </g>
     </g>
     <g id="text_62">
      <text style="font-size: 6.5px; font-family: 'Arial', sans-serif; text-anchor: end" x="257.513306" y="317.58549" transform="rotate(-0 257.513306 317.58549)">60</text>
     </g>
    </g>
    <g id="ytick_18">
     <g id="line2d_48">
      <g>
       <use xlink:href="#m7f50133021" x="263.513306" y="302.123339" style="stroke: #000000; stroke-width: 0.6"/>
      </g>
     </g>
     <g id="text_63">
      <text style="font-size: 6.5px; font-family: 'Arial', sans-serif; text-anchor: end" x="257.513306" y="304.489427" transform="rotate(-0 257.513306 304.489427)">70</text>
     </g>
    </g>
    <g id="ytick_19">
     <g id="line2d_49">
      <g>
       <use xlink:href="#m7f50133021" x="263.513306" y="289.027276" style="stroke: #000000; stroke-width: 0.6"/>
      </g>
     </g>
     <g id="text_64">
      <text style="font-size: 6.5px; font-family: 'Arial', sans-serif; text-anchor: end" x="257.513306" y="291.393364" transform="rotate(-0 257.513306 291.393364)">80</text>
     </g>
    </g>
    <g id="ytick_20">
     <g id="line2d_50">
      <g>
       <use xlink:href="#m7f50133021" x="263.513306" y="275.931213" style="stroke: #000000; stroke-width: 0.6"/>
      </g>
     </g>
     <g id="text_65">
      <text style="font-size: 6.5px; font-family: 'Arial', sans-serif; text-anchor: end" x="257.513306" y="278.297301" transform="rotate(-0 257.513306 278.297301)">90</text>
     </g>
    </g>
    <g id="ytick_21">
     <g id="line2d_51">
      <g>
       <use xlink:href="#m7f50133021" x="263.513306" y="262.83515" style="stroke: #000000; stroke-width: 0.6"/>
      </g>
     </g>
     <g id="text_66">
      <text style="font-size: 6.5px; font-family: 'Arial', sans-serif; text-anchor: end" x="257.513306" y="265.201238" transform="rotate(-0 257.513306 265.201238)">100</text>
     </g>
    </g>
    <g id="ytick_22">
     <g id="line2d_52">
      <g>
       <use xlink:href="#m7f50133021" x="263.513306" y="249.739087" style="stroke: #000000; stroke-width: 0.6"/>
      </g>
     </g>
     <g id="text_67">
      <text style="font-size: 6.5px; font-family: 'Arial', sans-serif; text-anchor: end" x="257.513306" y="252.105175" transform="rotate(-0 257.513306 252.105175)">110</text>
     </g>
    </g>
    <g id="ytick_23">
     <g id="line2d_53">
      <g>
       <use xlink:href="#m7f50133021" x="263.513306" y="236.643024" style="stroke: #000000; stroke-width: 0.6"/>
      </g>
     </g>
     <g id="text_68">
      <text style="font-size: 6.5px; font-family: 'Arial', sans-serif; text-anchor: end" x="257.513306" y="239.009112" transform="rotate(-0 257.513306 239.009112)">120</text>
     </g>
    </g>
    <g id="text_69">
     <text style="font-size: 7px; font-family: 'Arial', sans-serif; text-anchor: middle" x="241.196196" y="289.027276" transform="rotate(-90 241.196196 289.027276)">MAP (mmHg)</text>
    </g>
   </g>
   <g id="line2d_54">
    <path d="M 367.794252 291.646488 
L 368.656078 287.717669 
L 369.517904 286.408063 
L 370.37973 286.408063 
L 371.241556 286.408063 
L 372.103382 285.098457 
L 372.965208 290.336882 
L 373.827034 286.408063 
L 374.68886 282.479244 
L 375.550686 292.956094 
L 376.412512 291.646488 
L 377.274338 289.027276 
L 378.136164 286.408063 
L 378.99799 289.027276 
L 379.859816 290.336882 
L 380.721642 290.336882 
L 381.583468 289.027276 
L 382.445294 289.027276 
L 383.30712 286.408063 
L 384.168946 289.027276 
L 385.030772 287.717669 
L 385.892598 289.027276 
L 386.754424 291.646488 
L 387.61625 290.336882 
L 388.478076 289.027276 
L 389.339902 295.575307 
L 390.201728 287.717669 
L 391.063554 286.408063 
L 391.92538 290.336882 
L 392.787206 289.027276 
L 393.649032 287.717669 
L 394.510858 289.027276 
L 395.372684 287.717669 
L 396.23451 290.336882 
L 397.096336 294.265701 
L 397.958162 283.78885 
L 398.819988 291.646488 
L 399.681814 294.265701 
L 400.54364 282.479244 
L 401.405466 283.78885 
L 402.267292 283.78885 
L 403.129118 286.408063 
L 403.990944 286.408063 
L 404.85277 286.408063 
L 405.714596 281.169638 
L 406.576422 290.336882 
L 407.438248 290.336882 
L 408.300074 287.717669 
L 409.1619 286.408063 
L 410.023726 285.098457 
L 410.885552 283.78885 
L 411.747378 290.336882 
L 412.609204 290.336882 
L 413.47103 290.336882 
L 414.332856 289.027276 
L 415.194682 291.646488 
L 416.056508 291.646488 
L 416.918334 290.336882 
L 417.78016 286.408063 
L 418.641986 239.262236 
" clip-path="url(#pa4bb78b79e)" style="fill: none; stroke: #aeb4ba; stroke-width: 1.2; stroke-linecap: square"/>
   </g>
   <g id="patch_31">
    <path d="M 263.513306 341.411528 
L 263.513306 236.643024 
" style="fill: none; stroke: #000000; stroke-width: 0.6; stroke-linejoin: miter; stroke-linecap: square"/>
   </g>
   <g id="patch_32">
    <path d="M 263.513306 341.411528 
L 418.641986 341.411528 
" style="fill: none; stroke: #000000; stroke-width: 0.6; stroke-linejoin: miter; stroke-linecap: square"/>
   </g>
   <g id="line2d_55">
    <path d="M 366.932426 341.411528 
L 366.932426 236.643024 
" clip-path="url(#pa4bb78b79e)" style="fill: none; stroke-dasharray: 0.7,1.155; stroke-dashoffset: 0; stroke: #888888; stroke-width: 0.7"/>
   </g>
   <g id="text_70">
    <text style="font-weight: 700; font-size: 7px; font-family: 'Arial', sans-serif; text-anchor: middle" x="341.077646" y="230.643024" transform="rotate(-0 341.077646 230.643024)">Transition</text>
   </g>
   <g id="line2d_56">
    <path d="M 263.513306 290.336882 
L 264.375132 291.646488 
L 265.236958 295.575307 
L 266.098784 294.265701 
L 266.96061 290.336882 
L 267.822436 294.265701 
L 268.684262 282.479244 
L 269.546088 291.646488 
L 270.407914 291.646488 
L 271.26974 287.717669 
L 272.131566 299.504126 
L 272.993392 286.408063 
L 273.855218 287.717669 
L 274.717044 294.265701 
L 275.57887 291.646488 
L 276.440696 287.717669 
L 277.302522 287.717669 
L 278.164348 291.646488 
L 279.026174 289.027276 
L 279.888 292.956094 
L 280.749826 290.336882 
L 281.611652 287.717669 
L 282.473478 286.408063 
L 283.335304 291.646488 
L 284.19713 290.336882 
L 285.058956 290.336882 
L 285.920782 283.78885 
L 286.782608 291.646488 
L 287.644434 290.336882 
L 288.50626 289.027276 
L 289.368086 287.717669 
L 290.229912 285.098457 
L 291.091738 292.956094 
L 291.953564 285.098457 
L 292.81539 283.78885 
L 293.677216 285.098457 
L 294.539042 285.098457 
L 295.400868 278.550425 
L 296.262694 282.479244 
L 297.12452 281.169638 
L 297.986346 278.550425 
L 298.848172 279.860031 
L 299.709998 275.931213 
L 300.571824 275.931213 
L 301.43365 279.860031 
L 302.295476 279.860031 
L 303.157302 275.931213 
L 304.019128 273.312 
L 304.880954 277.240819 
L 305.74278 277.240819 
L 306.604606 282.479244 
L 307.466432 278.550425 
L 308.328258 278.550425 
L 309.190084 277.240819 
L 310.05191 274.621606 
L 310.913736 277.240819 
L 311.775562 278.550425 
L 312.637388 278.550425 
L 313.499214 277.240819 
L 314.36104 277.240819 
L 315.222866 274.621606 
L 316.084692 274.621606 
L 316.946518 278.550425 
L 317.808344 273.312 
L 318.67017 281.169638 
L 319.531996 283.78885 
L 320.393822 283.78885 
L 321.255648 282.479244 
L 322.117474 285.098457 
M 325.564778 249.739087 
L 326.426604 232.714205 
M 328.150256 282.479244 
L 329.012082 283.78885 
L 329.873908 291.646488 
L 330.735734 289.027276 
L 331.59756 281.169638 
L 332.459386 281.169638 
L 333.321212 289.027276 
L 334.183038 275.931213 
L 335.044864 283.78885 
L 335.90669 285.098457 
L 336.768516 283.78885 
L 337.630342 287.717669 
L 338.492168 282.479244 
L 339.353994 281.169638 
L 340.21582 286.408063 
L 341.077646 287.717669 
L 341.939472 287.717669 
L 342.801298 282.479244 
L 343.663124 285.098457 
L 344.52495 289.027276 
L 345.386776 287.717669 
L 346.248602 285.098457 
L 347.110428 285.098457 
L 347.972254 289.027276 
L 348.83408 282.479244 
L 349.695906 287.717669 
L 350.557732 286.408063 
L 351.419558 290.336882 
L 352.281384 289.027276 
L 353.14321 279.860031 
L 354.005036 277.240819 
L 354.866862 281.169638 
L 355.728688 277.240819 
L 356.590514 277.240819 
L 357.45234 275.931213 
L 358.314166 279.860031 
L 359.175992 273.312 
L 360.037818 287.717669 
L 360.899644 287.717669 
L 361.76147 282.479244 
L 362.623296 285.098457 
L 363.485122 289.027276 
L 364.346948 282.479244 
L 365.208774 289.027276 
L 366.0706 292.956094 
" clip-path="url(#pa4bb78b79e)" style="fill: none; stroke: #222222; stroke-width: 1.1; stroke-linecap: square"/>
   </g>
   <g id="line2d_57">
    <path d="M 367.794252 287.536044 
L 368.656078 287.567747 
L 369.517904 287.46953 
L 370.37973 287.083958 
L 371.241556 287.150512 
L 372.103382 287.323085 
L 372.965208 286.921536 
L 373.827034 286.871399 
L 374.68886 287.01121 
L 375.550686 286.629455 
L 376.412512 286.757296 
L 377.274338 286.863825 
L 378.136164 286.570825 
L 378.99799 286.546106 
L 379.859816 286.683229 
L 380.721642 286.378188 
L 381.583468 286.519578 
L 382.445294 286.556916 
L 383.30712 286.338432 
L 384.168946 286.372853 
L 385.030772 286.445101 
L 385.892598 286.144167 
L 386.754424 286.271759 
L 387.61625 286.360973 
L 388.478076 286.138163 
L 389.339902 286.198291 
L 390.201728 286.287436 
L 391.063554 286.025738 
L 391.92538 286.12917 
L 392.787206 286.140021 
L 393.649032 285.930299 
L 394.510858 285.925633 
L 395.372684 286.540061 
L 396.23451 286.373592 
L 397.096336 286.495189 
L 397.958162 286.524324 
L 398.819988 286.486117 
L 399.681814 286.518419 
L 400.54364 286.577319 
L 401.405466 286.430284 
L 402.267292 286.511725 
L 403.129118 286.468931 
L 403.990944 286.395234 
L 404.85277 286.383574 
L 405.714596 286.437538 
L 406.576422 286.328521 
L 407.438248 286.318899 
L 408.300074 286.34067 
L 409.1619 286.260099 
L 410.023726 286.24699 
L 410.885552 286.291362 
L 411.747378 286.195833 
L 412.609204 286.250697 
L 413.47103 286.241714 
L 414.332856 286.18772 
L 415.194682 286.193605 
L 416.056508 286.251047 
L 416.918334 286.106639 
L 417.78016 286.165439 
L 418.641986 286.222071 
" clip-path="url(#pa4bb78b79e)" style="fill: none; stroke: #0b7a8e; stroke-width: 1.9; stroke-linecap: square"/>
   </g>
  </g>
  <g id="axes_6">
   <g id="patch_33">
    <path d="M 471.385737 341.411528 
L 626.514418 341.411528 
L 626.514418 236.643024 
L 471.385737 236.643024 
z
" style="fill: #ffffff"/>
   </g>
   <g id="patch_34">
    <path d="M 471.385737 341.411528 
L 574.804857 341.411528 
L 574.804857 236.643024 
L 471.385737 236.643024 
z
" clip-path="url(#pcf141b7cec)" style="fill: #f2f2f2; stroke: #f2f2f2; stroke-width: 0.6; stroke-linejoin: miter"/>
   </g>
   <g id="FillBetweenPolyCollection_5">
    <defs>
     <path id="m14f79eb2a0" d="M 575.666683 -80.914881 
L 575.666683 -74.020914 
L 576.528509 -73.526814 
L 577.390335 -72.455775 
L 578.252161 -72.300886 
L 579.113987 -71.543001 
L 579.975813 -71.233114 
L 580.837639 -70.666406 
L 581.699465 -70.775793 
L 582.561291 -70.36794 
L 583.423117 -70.176433 
L 584.284943 -69.49786 
L 585.146769 -69.231247 
L 586.008595 -68.503076 
L 586.870421 -68.161526 
L 587.732247 -67.542543 
L 588.594073 -67.455967 
L 589.455899 -67.150157 
L 590.317725 -66.993889 
L 591.179551 -66.765214 
L 592.041377 -66.533231 
L 592.903203 -66.255168 
L 593.765029 -65.977594 
L 594.626855 -65.305615 
L 595.488681 -64.343274 
L 596.350507 -63.095245 
L 597.212333 -62.026304 
L 598.074159 -60.31383 
L 598.935985 -58.70257 
L 599.797811 -57.205129 
L 600.659637 -56.359743 
L 601.521463 -54.965568 
L 602.383289 -54.598021 
L 603.245115 -48.586233 
L 604.106941 -48.153496 
L 604.968767 -47.368869 
L 605.830593 -46.561605 
L 606.692419 -45.959128 
L 607.554245 -45.169319 
L 608.416071 -44.444596 
L 609.277897 -43.553523 
L 610.139724 -43.065963 
L 611.00155 -42.350726 
L 611.863376 -42.162796 
L 612.725202 -41.247994 
L 613.587028 -41.084183 
L 614.448854 -40.267708 
L 615.31068 -39.859869 
L 616.172506 -39.195599 
L 617.034332 -38.78278 
L 617.896158 -38.244094 
L 618.757984 -38.293332 
L 619.61981 -37.517866 
L 620.481636 -36.9259 
L 621.343462 -36.380234 
L 622.205288 -36.377551 
L 623.067114 -35.480219 
L 623.92894 -35.427624 
L 624.790766 -34.860536 
L 625.652592 -35.261075 
L 626.514418 -34.860241 
L 626.514418 -90.622216 
L 626.514418 -90.622216 
L 625.652592 -90.615641 
L 624.790766 -90.127656 
L 623.92894 -90.407688 
L 623.067114 -90.060703 
L 622.205288 -89.952545 
L 621.343462 -89.611565 
L 620.481636 -89.571689 
L 619.61981 -89.235575 
L 618.757984 -89.224794 
L 617.896158 -89.087031 
L 617.034332 -89.17075 
L 616.172506 -88.980322 
L 615.31068 -89.039811 
L 614.448854 -88.860854 
L 613.587028 -88.928186 
L 612.725202 -88.896873 
L 611.863376 -88.741245 
L 611.00155 -88.663741 
L 610.139724 -88.617001 
L 609.277897 -88.632138 
L 608.416071 -88.656677 
L 607.554245 -88.584638 
L 606.692419 -88.885193 
L 605.830593 -88.867218 
L 604.968767 -88.955323 
L 604.106941 -88.557981 
L 603.245115 -88.26565 
L 602.383289 -88.835935 
L 601.521463 -88.529046 
L 600.659637 -89.05269 
L 599.797811 -89.110681 
L 598.935985 -89.561578 
L 598.074159 -89.721662 
L 597.212333 -90.540525 
L 596.350507 -90.872613 
L 595.488681 -91.750876 
L 594.626855 -91.760568 
L 593.765029 -92.124198 
L 592.903203 -91.771948 
L 592.041377 -91.635784 
L 591.179551 -91.069306 
L 590.317725 -91.085382 
L 589.455899 -90.579082 
L 588.594073 -90.564405 
L 587.732247 -89.955213 
L 586.870421 -89.987805 
L 586.008595 -89.519184 
L 585.146769 -89.633566 
L 584.284943 -89.021927 
L 583.423117 -89.059535 
L 582.561291 -88.233637 
L 581.699465 -87.983799 
L 580.837639 -86.890519 
L 579.975813 -86.510023 
L 579.113987 -85.511152 
L 578.252161 -84.894417 
L 577.390335 -83.633089 
L 576.528509 -82.737181 
L 575.666683 -80.914881 
z
"/>
    </defs>
    <g clip-path="url(#pcf141b7cec)">
     <use xlink:href="#m14f79eb2a0" x="0" y="371.281098" style="fill: #7fbfc9; fill-opacity: 0.5"/>
    </g>
   </g>
   <g id="line2d_58">
    <path d="M 471.385737 308.67137 
L 626.514418 308.67137 
" clip-path="url(#pcf141b7cec)" style="fill: none; stroke-dasharray: 2.59,1.12; stroke-dashoffset: 0; stroke: #c0392b; stroke-width: 0.7"/>
   </g>
   <g id="matplotlib.axis_9">
    <g id="xtick_16">
     <g id="line2d_59">
      <g>
       <use xlink:href="#mfca38dbd47" x="471.385737" y="341.411528" style="stroke: #000000; stroke-width: 0.6"/>
      </g>
     </g>
     <g id="text_71">
      <text style="font-size: 6.5px; font-family: 'Arial', sans-serif; text-anchor: middle" x="471.385737" y="352.143705" transform="rotate(-0 471.385737 352.143705)">−30</text>
     </g>
    </g>
    <g id="xtick_17">
     <g id="line2d_60">
      <g>
       <use xlink:href="#mfca38dbd47" x="505.858777" y="341.411528" style="stroke: #000000; stroke-width: 0.6"/>
      </g>
     </g>
     <g id="text_72">
      <text style="font-size: 6.5px; font-family: 'Arial', sans-serif; text-anchor: middle" x="505.858777" y="352.143705" transform="rotate(-0 505.858777 352.143705)">−20</text>
     </g>
    </g>
    <g id="xtick_18">
     <g id="line2d_61">
      <g>
       <use xlink:href="#mfca38dbd47" x="540.331817" y="341.411528" style="stroke: #000000; stroke-width: 0.6"/>
      </g>
     </g>
     <g id="text_73">
      <text style="font-size: 6.5px; font-family: 'Arial', sans-serif; text-anchor: middle" x="540.331817" y="352.143705" transform="rotate(-0 540.331817 352.143705)">−10</text>
     </g>
    </g>
    <g id="xtick_19">
     <g id="line2d_62">
      <g>
       <use xlink:href="#mfca38dbd47" x="574.804857" y="341.411528" style="stroke: #000000; stroke-width: 0.6"/>
      </g>
     </g>
     <g id="text_74">
      <text style="font-size: 6.5px; font-family: 'Arial', sans-serif; text-anchor: middle" x="574.804857" y="352.143705" transform="rotate(-0 574.804857 352.143705)">0</text>
     </g>
    </g>
    <g id="xtick_20">
     <g id="line2d_63">
      <g>
       <use xlink:href="#mfca38dbd47" x="609.277897" y="341.411528" style="stroke: #000000; stroke-width: 0.6"/>
      </g>
     </g>
     <g id="text_75">
      <text style="font-size: 6.5px; font-family: 'Arial', sans-serif; text-anchor: middle" x="609.277897" y="352.143705" transform="rotate(-0 609.277897 352.143705)">10</text>
     </g>
    </g>
    <g id="text_76">
     <text style="font-size: 7px; font-family: 'Arial', sans-serif; text-anchor: middle" x="548.950077" y="362.607817" transform="rotate(-0 548.950077 362.607817)">time (min)</text>
    </g>
   </g>
   <g id="matplotlib.axis_10">
    <g id="ytick_24">
     <g id="line2d_64">
      <g>
       <use xlink:href="#m7f50133021" x="471.385737" y="341.411528" style="stroke: #000000; stroke-width: 0.6"/>
      </g>
     </g>
     <g id="text_77">
      <text style="font-size: 6.5px; font-family: 'Arial', sans-serif; text-anchor: end" x="465.385737" y="343.777616" transform="rotate(-0 465.385737 343.777616)">40</text>
     </g>
    </g>
    <g id="ytick_25">
     <g id="line2d_65">
      <g>
       <use xlink:href="#m7f50133021" x="471.385737" y="328.315465" style="stroke: #000000; stroke-width: 0.6"/>
      </g>
     </g>
     <g id="text_78">
      <text style="font-size: 6.5px; font-family: 'Arial', sans-serif; text-anchor: end" x="465.385737" y="330.681553" transform="rotate(-0 465.385737 330.681553)">50</text>
     </g>
    </g>
    <g id="ytick_26">
     <g id="line2d_66">
      <g>
       <use xlink:href="#m7f50133021" x="471.385737" y="315.219402" style="stroke: #000000; stroke-width: 0.6"/>
      </g>
     </g>
     <g id="text_79">
      <text style="font-size: 6.5px; font-family: 'Arial', sans-serif; text-anchor: end" x="465.385737" y="317.58549" transform="rotate(-0 465.385737 317.58549)">60</text>
     </g>
    </g>
    <g id="ytick_27">
     <g id="line2d_67">
      <g>
       <use xlink:href="#m7f50133021" x="471.385737" y="302.123339" style="stroke: #000000; stroke-width: 0.6"/>
      </g>
     </g>
     <g id="text_80">
      <text style="font-size: 6.5px; font-family: 'Arial', sans-serif; text-anchor: end" x="465.385737" y="304.489427" transform="rotate(-0 465.385737 304.489427)">70</text>
     </g>
    </g>
    <g id="ytick_28">
     <g id="line2d_68">
      <g>
       <use xlink:href="#m7f50133021" x="471.385737" y="289.027276" style="stroke: #000000; stroke-width: 0.6"/>
      </g>
     </g>
     <g id="text_81">
      <text style="font-size: 6.5px; font-family: 'Arial', sans-serif; text-anchor: end" x="465.385737" y="291.393364" transform="rotate(-0 465.385737 291.393364)">80</text>
     </g>
    </g>
    <g id="ytick_29">
     <g id="line2d_69">
      <g>
       <use xlink:href="#m7f50133021" x="471.385737" y="275.931213" style="stroke: #000000; stroke-width: 0.6"/>
      </g>
     </g>
     <g id="text_82">
      <text style="font-size: 6.5px; font-family: 'Arial', sans-serif; text-anchor: end" x="465.385737" y="278.297301" transform="rotate(-0 465.385737 278.297301)">90</text>
     </g>
    </g>
    <g id="ytick_30">
     <g id="line2d_70">
      <g>
       <use xlink:href="#m7f50133021" x="471.385737" y="262.83515" style="stroke: #000000; stroke-width: 0.6"/>
      </g>
     </g>
     <g id="text_83">
      <text style="font-size: 6.5px; font-family: 'Arial', sans-serif; text-anchor: end" x="465.385737" y="265.201238" transform="rotate(-0 465.385737 265.201238)">100</text>
     </g>
    </g>
    <g id="ytick_31">
     <g id="line2d_71">
      <g>
       <use xlink:href="#m7f50133021" x="471.385737" y="249.739087" style="stroke: #000000; stroke-width: 0.6"/>
      </g>
     </g>
     <g id="text_84">
      <text style="font-size: 6.5px; font-family: 'Arial', sans-serif; text-anchor: end" x="465.385737" y="252.105175" transform="rotate(-0 465.385737 252.105175)">110</text>
     </g>
    </g>
    <g id="ytick_32">
     <g id="line2d_72">
      <g>
       <use xlink:href="#m7f50133021" x="471.385737" y="236.643024" style="stroke: #000000; stroke-width: 0.6"/>
      </g>
     </g>
     <g id="text_85">
      <text style="font-size: 6.5px; font-family: 'Arial', sans-serif; text-anchor: end" x="465.385737" y="239.009112" transform="rotate(-0 465.385737 239.009112)">120</text>
     </g>
    </g>
    <g id="text_86">
     <text style="font-size: 7px; font-family: 'Arial', sans-serif; text-anchor: middle" x="449.068628" y="289.027276" transform="rotate(-90 449.068628 289.027276)">MAP (mmHg)</text>
    </g>
   </g>
   <g id="line2d_73">
    <path d="M 575.666683 295.575307 
L 576.528509 295.575307 
L 577.390335 299.504126 
L 578.252161 298.19452 
L 579.113987 302.123339 
L 579.975813 302.123339 
L 580.837639 303.432945 
L 581.699465 303.432945 
L 582.561291 304.742551 
L 583.423117 300.813732 
L 584.284943 299.504126 
L 585.146769 298.19452 
L 586.008595 294.265701 
L 586.870421 298.19452 
L 587.732247 292.956094 
L 588.594073 290.336882 
L 589.455899 285.098457 
L 590.317725 286.408063 
L 591.179551 287.717669 
L 592.041377 286.408063 
L 592.903203 290.336882 
L 593.765029 290.336882 
L 594.626855 291.646488 
L 595.488681 291.646488 
L 596.350507 294.265701 
L 597.212333 295.575307 
L 598.074159 298.19452 
L 598.935985 299.504126 
L 599.797811 303.432945 
L 600.659637 302.123339 
L 601.521463 304.742551 
L 602.383289 304.742551 
L 603.245115 304.742551 
L 604.106941 306.052157 
L 604.968767 304.742551 
L 605.830593 306.052157 
L 606.692419 308.67137 
L 607.554245 308.67137 
L 608.416071 309.980976 
L 609.277897 309.980976 
L 610.139724 311.290583 
L 611.00155 309.980976 
L 611.863376 311.290583 
L 612.725202 311.290583 
L 613.587028 311.290583 
L 614.448854 311.290583 
L 615.31068 312.600189 
L 616.172506 311.290583 
L 617.034332 311.290583 
L 617.896158 308.67137 
L 618.757984 308.67137 
L 619.61981 307.361764 
L 620.481636 309.980976 
L 621.343462 309.980976 
L 622.205288 308.67137 
L 623.067114 308.67137 
L 623.92894 307.361764 
L 624.790766 307.361764 
L 625.652592 307.361764 
L 626.514418 303.432945 
" clip-path="url(#pcf141b7cec)" style="fill: none; stroke: #aeb4ba; stroke-width: 1.2; stroke-linecap: square"/>
   </g>
   <g id="patch_35">
    <path d="M 471.385737 341.411528 
L 471.385737 236.643024 
" style="fill: none; stroke: #000000; stroke-width: 0.6; stroke-linejoin: miter; stroke-linecap: square"/>
   </g>
   <g id="patch_36">
    <path d="M 471.385737 341.411528 
L 626.514418 341.411528 
" style="fill: none; stroke: #000000; stroke-width: 0.6; stroke-linejoin: miter; stroke-linecap: square"/>
   </g>
   <g id="line2d_74">
    <path d="M 574.804857 341.411528 
L 574.804857 236.643024 
" clip-path="url(#pcf141b7cec)" style="fill: none; stroke-dasharray: 0.7,1.155; stroke-dashoffset: 0; stroke: #888888; stroke-width: 0.7"/>
   </g>
   <g id="text_87">
    <text style="font-weight: 700; font-size: 7px; font-family: 'Arial', sans-serif; text-anchor: middle" x="548.950077" y="230.643024" transform="rotate(-0 548.950077 230.643024)">Hypotensive onset</text>
   </g>
   <g id="line2d_75">
    <path d="M 471.385737 317.838614 
L 472.247563 316.529008 
L 473.109389 317.838614 
L 473.971215 313.909795 
L 474.833041 308.67137 
L 475.694867 309.980976 
L 476.556693 308.67137 
L 477.418519 303.432945 
L 478.280345 306.052157 
L 479.142171 304.742551 
L 480.003997 306.052157 
L 480.865823 300.813732 
L 481.727649 304.742551 
L 482.589475 303.432945 
L 483.451301 306.052157 
L 484.313127 304.742551 
L 485.174953 308.67137 
L 486.036779 307.361764 
L 486.898605 308.67137 
L 487.760431 289.027276 
L 488.622257 273.312 
L 489.484083 262.83515 
L 490.345909 266.763969 
L 491.207735 262.83515 
L 492.069561 260.215937 
L 492.931387 258.906331 
L 493.793213 266.763969 
L 494.655039 264.144756 
L 495.516865 251.048693 
L 496.378691 243.191055 
L 497.240517 244.500661 
L 498.102343 244.500661 
M 499.825995 279.860031 
L 500.687821 266.763969 
L 501.549647 268.073575 
L 502.411473 272.002394 
L 503.273299 273.312 
L 504.135125 278.550425 
L 504.996951 277.240819 
L 505.858777 275.931213 
L 506.720603 277.240819 
L 507.582429 279.860031 
L 508.444255 279.860031 
L 509.306081 281.169638 
L 510.167907 279.860031 
L 511.029733 282.479244 
L 511.891559 279.860031 
L 512.753385 281.169638 
L 513.615211 281.169638 
L 514.477037 278.550425 
L 515.338863 277.240819 
L 516.200689 278.550425 
L 517.062515 277.240819 
L 517.924341 275.931213 
L 518.786167 274.621606 
L 519.647993 277.240819 
L 520.509819 274.621606 
L 521.371645 272.002394 
L 522.233471 270.692787 
L 523.095297 275.931213 
L 523.957123 278.550425 
L 524.818949 281.169638 
L 525.680775 279.860031 
L 526.542601 278.550425 
L 527.404427 270.692787 
L 528.266253 274.621606 
L 529.128079 274.621606 
L 529.989905 274.621606 
L 530.851731 277.240819 
L 531.713557 278.550425 
L 532.575383 277.240819 
L 533.437209 277.240819 
L 534.299035 281.169638 
L 535.160861 283.78885 
L 536.022687 283.78885 
L 536.884513 285.098457 
L 537.746339 285.098457 
L 538.608165 281.169638 
L 539.469991 281.169638 
L 540.331817 281.169638 
L 541.193643 279.860031 
L 542.055469 282.479244 
L 542.917295 283.78885 
L 543.779121 283.78885 
L 544.640947 279.860031 
L 545.502773 283.78885 
L 546.364599 286.408063 
L 547.226425 286.408063 
L 548.088251 283.78885 
L 548.950077 285.098457 
L 549.811903 286.408063 
L 550.673729 286.408063 
L 551.535555 283.78885 
L 552.397381 283.78885 
L 553.259207 282.479244 
L 554.121033 286.408063 
L 554.982859 286.408063 
L 555.844685 289.027276 
L 556.706511 289.027276 
L 557.568337 292.956094 
L 558.430163 291.646488 
L 559.291989 294.265701 
L 560.153815 285.098457 
L 561.015641 283.78885 
L 561.877467 283.78885 
L 562.739293 283.78885 
L 563.601119 285.098457 
L 564.462945 287.717669 
L 565.324771 287.717669 
L 566.186597 287.717669 
L 567.048423 286.408063 
L 567.910249 289.027276 
L 568.772075 286.408063 
L 569.633901 290.336882 
L 570.495727 289.027276 
L 571.357553 290.336882 
L 572.219379 290.336882 
L 573.081205 295.575307 
L 573.943031 294.265701 
" clip-path="url(#pcf141b7cec)" style="fill: none; stroke: #222222; stroke-width: 1.1; stroke-linecap: square"/>
   </g>
   <g id="line2d_76">
    <path d="M 575.666683 293.990845 
L 576.528509 293.367205 
L 577.390335 293.44396 
L 578.252161 292.967954 
L 579.113987 293.058927 
L 579.975813 292.699263 
L 580.837639 292.897005 
L 581.699465 292.308805 
L 582.561291 292.448766 
L 583.423117 292.199438 
L 584.284943 292.465951 
L 585.146769 292.375908 
L 586.008595 292.731515 
L 586.870421 292.564378 
L 587.732247 292.876572 
L 588.594073 292.540158 
L 589.455899 292.727369 
L 590.317725 292.496325 
L 591.179551 292.579285 
L 592.041377 292.378016 
L 592.903203 292.388787 
L 593.765029 292.264533 
L 594.626855 292.721784 
L 595.488681 293.151328 
L 596.350507 294.082696 
L 597.212333 294.737669 
L 598.074159 295.700381 
L 598.935985 296.47735 
L 599.797811 297.322501 
L 600.659637 297.903157 
L 601.521463 298.807448 
L 602.383289 299.028111 
L 603.245115 301.551954 
L 604.106941 302.01623 
L 604.968767 302.715845 
L 605.830593 303.033974 
L 606.692419 303.558938 
L 607.554245 303.936457 
L 608.416071 304.457084 
L 609.277897 304.608575 
L 610.139724 305.066166 
L 611.00155 305.001931 
L 611.863376 305.30806 
L 612.725202 305.322178 
L 613.587028 305.581298 
L 614.448854 305.604358 
L 615.31068 306.023222 
L 616.172506 306.157928 
L 617.034332 306.521738 
L 617.896158 306.638978 
L 618.757984 306.736196 
L 619.61981 306.927813 
L 620.481636 307.068853 
L 621.343462 307.161504 
L 622.205288 307.351582 
L 623.067114 307.518211 
L 623.92894 307.504023 
L 624.790766 307.688366 
L 625.652592 307.576241 
L 626.514418 307.694321 
" clip-path="url(#pcf141b7cec)" style="fill: none; stroke: #0b7a8e; stroke-width: 1.9; stroke-linecap: square"/>
   </g>
  </g>
 </g>
 <defs>
  <clipPath id="pf228cae47f">
   <rect x="55.640874" y="21.867591" width="363.001112" height="104.768504"/>
  </clipPath>
  <clipPath id="pb950eaf985">
   <rect x="55.640874" y="143.399055" width="363.001112" height="25.144441"/>
  </clipPath>
  <clipPath id="pc85dc84133">
   <rect x="471.385737" y="21.867591" width="155.12868" height="146.675906"/>
  </clipPath>
  <clipPath id="pcaa7e43607">
   <rect x="55.640874" y="236.643024" width="155.12868" height="104.768504"/>
  </clipPath>
  <clipPath id="pa4bb78b79e">
   <rect x="263.513306" y="236.643024" width="155.12868" height="104.768504"/>
  </clipPath>
  <clipPath id="pcf141b7cec">
   <rect x="471.385737" y="236.643024" width="155.12868" height="104.768504"/>
  </clipPath>
 </defs>
</svg>
